<svg xmlns="http://www.w3.org/2000/svg" viewBox="0 0 62.82 76.42">
  <g>
    <path d="M58,14.79h0a2.25,2.25,0,0,1-.9-1.9c-1.56-1.33-4.27-2.93-7.26-1.57a.61.61,0,0,1,0,.1h0v.06a.68.68,0,0,1,0,.2.67.67,0,0,1,0,.11v.05a.7.7,0,0,1-.13.2h0c-6.36,7-7.08,13.58-7.09,13.64,0,2.55-2.77,7.81-2.89,8l-.06.09q-3,4-6,3.62C30.64,37.06,29,33.17,28.9,33s-6.15-13.24-16.15-9.85A16.56,16.56,0,0,0,1.81,34.85,17.39,17.39,0,0,0,3.57,46.78C2,42.12,1.77,36.53,6.4,31.9a.71.71,0,0,1,1.12.85c-.24.43-5.24,9.54,2.16,16.57A13.74,13.74,0,0,1,10.62,35a.71.71,0,0,1,1.25.65c-1.51,4-1.7,7.27-.58,9.61a5.84,5.84,0,0,0,.71,1.1c-1.88-5.35,1.55-8,1.59-8.08a.71.71,0,0,1,1.07.87,5.22,5.22,0,0,0,0,5A3.33,3.33,0,0,1,16,41.53a3.05,3.05,0,0,1,2.89,0,.7.7,0,0,1,.16.12c1.5,1.5,11.37,14.07,11.79,14.61C37.31,67.5,35.18,71,34.91,71.34l-.07.08A24.68,24.68,0,0,0,32,75H45a14,14,0,0,0-4.62-2.25c-5.09-.91-5-10.53-5-10.94,0-4.84,4.58-7,7.1-7.44C51.83,49.86,53,46.3,53,46.26a.78.78,0,0,1,.13-.25c2.38-3,.86-11.22,0-14.2-.64-1.53-2.12-8.38-2.45-9.93l0-.24a.71.71,0,0,1,1.39-.29v.23a4.1,4.1,0,0,0,1.65,2.78,2.75,2.75,0,0,0,2,.27h.1c1.32-.21,2.12-.66,2.38-1.35.53-1.43-1.13-3.8-1.81-4.59a.71.71,0,0,1,.42-1.16c.55-.22,1.44-.31,3.44.5a4.45,4.45,0,0,1,1.06.7h0C61.26,17.6,59.4,15.78,58,14.79ZM14.3,36.06c4-4.3,10.91-1.32,10.91-1.32Zm-4-4c5.29-7.44,15.21,1.32,15.21,1.32-6.42-2.94-15.18-1.29-15.18-1.29ZM8.68,28.62S20.75,18,26.37,33.42C26.37,33.42,17.61,24.16,8.68,28.62ZM51.17,42.54a1.07,1.07,0,0,1,.07-.29.42.42,0,0,1,.49-.33h0a.43.43,0,0,1,.33.5c0,.11-2.56,11.07-18.25,11.9h0a.43.43,0,0,1-.12-.83,30.54,30.54,0,0,0,4.73-1.93c-2.52.94-5.67,1.81-7.7,1.26a.43.43,0,0,1,0-.82,41.82,41.82,0,0,0,7-2.69,8.64,8.64,0,0,1-3.48-.13.43.43,0,0,1,0-.81A24.75,24.75,0,0,0,42,44a.42.42,0,0,1,.71.33A23.48,23.48,0,0,0,51.17,42.54Zm2.56-26.38a1.5,1.5,0,1,1,1.58-1.5,1.54,1.54,0,0,1-1.59,1.49h0Z" fill="none"/>
    <ellipse cx="53.72" cy="14.65" rx="0.73" ry="0.65" fill="none"/>
    <path d="M36.87,61.82c0,2.46.57,9,3.88,9.55a16,16,0,0,1,5.13,2.49h1.76c-.22-.69-.93-1.75-3.23-2.22A6.72,6.72,0,0,1,39.81,70a5.41,5.41,0,0,1-1.5-4.23,13.82,13.82,0,0,1,1.22-5.06,30.13,30.13,0,0,0,2-4.61C39.75,56.76,36.87,58.32,36.87,61.82Z" fill="none"/>
    <path d="M58.08,13.77a2.79,2.79,0,0,0,.39.45A2.54,2.54,0,0,0,58.08,13.77Z" fill="#777"/>
    <path d="M53.72,13.16a1.5,1.5,0,1,0,1.58,1.5,1.54,1.54,0,0,0-1.58-1.5Zm0,2.15a.65.65,0,1,1,.73-.65.7.7,0,0,1-.73.64Z" fill="#777"/>
    <path d="M59,13.7c-.32-.3-.49-.57-.44-.74.1-.4,1-.86,1.64-1a.69.69,0,0,0,.19-.09c.85-.54,2-1.38,1.68-2.43a1.69,1.69,0,0,0-1-1.06,2.8,2.8,0,0,0,.8-1.85,1.49,1.49,0,0,0-.54-1.33,3.2,3.2,0,0,0-2.12-.46A2.88,2.88,0,0,0,59.62,2h0l-.08-.11-.09-.11h0c-1.83-1.44-3.93-.21-5.22.88C54.06,1,53.65.22,52.88,0s-1.79.7-2.6,1.89C50.14.84,49.79.26,49.19.06,47.9-.37,46.51,1.58,46,2.44l-.06.11c-.16.41-.29.79-.4,1.17a1.35,1.35,0,0,1-.09.33c-.07.27-.13.53-.17.78s0,.21,0,.32a8.32,8.32,0,0,0-.08.86v.11a7.13,7.13,0,0,0,0,.89v.24a4.06,4.06,0,0,0,.11.59l.06.24a5.37,5.37,0,0,0,.19.58v.13a6.11,6.11,0,0,0,.31.63l.1.16c.09.14.17.28.26.41l.12.17.3.37.09.11q.2.22.4.4l.1.09.3.25.12.1.28.2.08.06h0c-6.15,7.1-6.84,13.52-6.87,13.87,0,1.87-1.92,5.92-2.7,7.39-1.64,2.17-3.2,3.19-4.61,3-2.29-.28-3.71-3.54-3.73-3.59S23.52,18,12.29,21.81A18,18,0,0,0,.43,34.53C-.71,39.48-.14,47.28,9,56.38a.71.71,0,0,0,1-1c-.1-.11-8.18-9.46-5.59-17.78-.69,4.44.07,10.65,7.5,15.21a.71.71,0,0,0,.9-1.08,15.5,15.5,0,0,1-3.1-6.43q.11.28.24.55a6.63,6.63,0,0,0,3.61,3.39.71.71,0,0,0,.82-1,9.93,9.93,0,0,1-1.62-4.86,7.06,7.06,0,0,0,2.05,3.29A.71.71,0,0,0,16,46.06c-.15-1.77.09-3,.66-3.37a1.57,1.57,0,0,1,1.36,0C19.76,44.53,29.55,57,29.6,57.06c5.71,9.82,4.33,13.12,4.19,13.42a28.45,28.45,0,0,0-3.69,4.88.71.71,0,0,0,.61,1.07h15.7a.71.71,0,0,0,.68-.92.68.68,0,0,0-.09-.22h1.44a.71.71,0,0,0,.7-.63s.35-3.48-4.54-4.42h-.18A5.4,5.4,0,0,1,40.79,69a4.08,4.08,0,0,1-1.08-3.2,12.58,12.58,0,0,1,1.08-4.47c.38-.7,2.21-4.33,2.21-5.6h.06c9.09-4.39,10.92-8.08,11.23-8.89,3.21-4.27.34-15,.22-15.4v-.1A55.61,55.61,0,0,1,53,25.54h.07a4.16,4.16,0,0,0,3.09.41c1.85-.3,3-1.06,3.44-2.26.61-1.67-.41-3.66-1.23-4.89a9.1,9.1,0,0,1,1.42.46,3.53,3.53,0,0,1,.69.49c.5.41,1.07.87,1.69.58s.65-1.15.66-1.51C62.84,16.62,59.3,13.95,59,13.7Zm-19.43,47a13.82,13.82,0,0,0-1.22,5.06A5.41,5.41,0,0,0,39.81,70a6.72,6.72,0,0,0,4.6,1.62c2.3.46,3,1.53,3.23,2.22H45.88a16,16,0,0,0-5.13-2.49c-3.3-.59-3.92-7.09-3.88-9.55,0-3.5,2.89-5.06,4.67-5.7a30.13,30.13,0,0,1-2,4.63Zm21.85-42a4.45,4.45,0,0,0-1.06-.7c-2-.81-2.89-.71-3.44-.5a.71.71,0,0,0-.42,1.16c.68.79,2.34,3.16,1.81,4.59-.25.69-1,1.14-2.38,1.35h-.1a2.75,2.75,0,0,1-2-.27,4.1,4.1,0,0,1-1.65-2.78v-.23a.71.71,0,0,0-1.39.29l0,.24c.33,1.56,1.81,8.4,2.45,9.93.8,3,2.33,11.19,0,14.2a.78.78,0,0,0-.13.25S52,49.83,42.66,54.34c-2.51.47-7.1,2.61-7.1,7.44,0,.41-.12,10,5,10.94A14,14,0,0,1,45,75H32a24.68,24.68,0,0,1,2.85-3.58l.07-.08c.27-.36,2.4-3.84-4.15-15.07-.42-.54-10.3-13.12-11.77-14.62a.7.7,0,0,0-.16-.12,3.05,3.05,0,0,0-2.89,0,3.33,3.33,0,0,0-1.3,2.62,5.22,5.22,0,0,1,0-5,.71.71,0,0,0-1.07-.87S10.11,41,12,46.36a5.84,5.84,0,0,1-.71-1.13c-1.12-2.34-.92-5.57.58-9.61A.71.71,0,0,0,10.62,35a13.74,13.74,0,0,0-.93,14.35c-7.4-7-2.4-16.14-2.16-16.57A.72.72,0,0,0,6.4,31.9C1.77,36.53,2,42.12,3.57,46.78A17.39,17.39,0,0,1,1.81,34.85,16.56,16.56,0,0,1,12.75,23.16c10-3.38,16.09,9.74,16.15,9.85s1.75,4,4.85,4.43c2,.23,4-1,6-3.62l.06-.09c.12-.22,2.89-5.48,2.89-8,0-.07.74-6.65,7.09-13.64h0a.7.7,0,0,0,.13-.2v-.05a.67.67,0,0,0,0-.11.68.68,0,0,0,0-.2v-.06h0a.61.61,0,0,0,0-.1.8.8,0,0,0,0-.09l0-.08a.69.69,0,0,0-.25-.18l-.25-.12c-.94-.49-4-2.55-2-7.66a5.83,5.83,0,0,1,1.52-1.69,4.32,4.32,0,0,1,.19,1.74A9,9,0,0,1,49,4.67a.71.71,0,0,0,.52.75.72.72,0,0,0,.25,0H50a.7.7,0,0,0,0-.24h.06A.7.7,0,0,0,50.2,5a11.1,11.1,0,0,1,2.34-3.47,5.56,5.56,0,0,1,.28,2.16v.66a.71.71,0,0,0,.25.55h0l.14.08h0A.72.72,0,0,0,54,4.74a7.65,7.65,0,0,1,2.88-2.11h0l.32-.07H58l.18.08h.08a1.37,1.37,0,0,1,0,.41h0a1.9,1.9,0,0,1-.23.57v.06a2.69,2.69,0,0,1-.24.31l0,.05a3.68,3.68,0,0,1-.31.3l-.07.06a5.23,5.23,0,0,1-.46.34L56.8,5a7.06,7.06,0,0,1-.63.36.71.71,0,0,0-.34.9.68.68,0,0,0,.09.14.68.68,0,0,0,.78.28,7.89,7.89,0,0,1,3.56-.43.28.28,0,0,1,.14.1V6.5c0,.21-.11,1.24-1.55,1.46a.71.71,0,0,0,.06,1.41,5.27,5.27,0,0,1,1.73.4s-.08.3-1,.89c-.55.17-2.22.76-2.53,2a1.68,1.68,0,0,0,0,.22,2.25,2.25,0,0,0,.9,1.9h0c1.34,1,3.21,2.81,3.34,3.92Zm-2.89-4.47a2.79,2.79,0,0,1-.39-.45,4.26,4.26,0,0,1,.33.44Z" fill="#777"/>
    <path d="M37.13,53.13a18.13,18.13,0,0,0,5.41-3.38.43.43,0,0,0-.49-.68c-.06,0-5,2.55-8.76,3,2.23-.77,5.42-2,6.62-3.34a.43.43,0,0,0-.45-.69,12.13,12.13,0,0,1-3.35.54H36a23.72,23.72,0,0,0,6.5-4,.43.43,0,1,0-.47-.72l-.1.09a24.75,24.75,0,0,1-7.78,4.38.43.43,0,0,0,0,.81,8.64,8.64,0,0,0,3.48.13,41.82,41.82,0,0,1-7,2.69.43.43,0,0,0,0,.82c2,.55,5.17-.32,7.7-1.26A30.54,30.54,0,0,1,33.6,53.5a.43.43,0,0,0,.12.83h0C49.51,53.5,52,42.54,52.07,42.43a.43.43,0,0,0-.33-.5.42.42,0,0,0-.51.31v0a.76.76,0,0,1-.07.29C50.72,44.1,48.09,51.33,37.13,53.13Z" fill="#777"/>
    <path d="M42.52,44.64a23.72,23.72,0,0,1-6.52,4h.08A12.13,12.13,0,0,0,39.43,48a.43.43,0,0,1,.45.69c-1.2,1.31-4.39,2.57-6.62,3.34,3.72-.46,8.7-3,8.76-3a.43.43,0,0,1,.49.68,18.13,18.13,0,0,1-5.41,3.38c11-1.8,13.59-9,14-10.59a23.48,23.48,0,0,1-8.51,1.8A.42.42,0,0,1,42.52,44.64Z" fill="#ccc"/>
    <path d="M58.92,9.31a.71.71,0,0,1-.06-1.41c1.44-.22,1.54-1.25,1.55-1.46V6.29a.28.28,0,0,0-.14-.1,7.89,7.89,0,0,0-3.56.43.68.68,0,0,1-.78-.28.68.68,0,0,1-.09-.14.71.71,0,0,1,.34-.9,7.07,7.07,0,0,0,.63-.36l.12-.07a5.23,5.23,0,0,0,.46-.34l.07-.06a3.68,3.68,0,0,0,.31-.3l0-.05a2.69,2.69,0,0,0,.18-.3V3.76a1.9,1.9,0,0,0,.23-.57h0a1.37,1.37,0,0,0,0-.41h-.08L58,2.7h-.82L57,2.64h0a7.65,7.65,0,0,0-2.88,2.11.72.72,0,0,1-.77.22h0l-.14-.08h0A.71.71,0,0,1,53,4.34V3.68a5.56,5.56,0,0,0-.28-2.16A11.1,11.1,0,0,0,50.34,5a.7.7,0,0,1-.14.2h-.06L50,5.28h-.23a.72.72,0,0,1-.25,0A.71.71,0,0,1,49,4.53c0-.55.07-1,.08-1.38a4.32,4.32,0,0,0-.19-1.74A5.83,5.83,0,0,0,47.37,3.1c-2,5.11,1.1,7.18,2,7.66l.25.12a.69.69,0,0,1,.25.18l0,.08a.8.8,0,0,1,0,.09c3-1.36,5.7.24,7.26,1.57a1.68,1.68,0,0,1,0-.22c.31-1.26,2-1.86,2.53-2,.9-.59,1-.88,1-.89A5.27,5.27,0,0,0,58.92,9.31Z" fill="#ccc"/>
    <path d="M8.68,28.62c8.93-4.46,17.69,4.79,17.69,4.79C20.75,18,8.68,28.62,8.68,28.62Z" fill="#ccc"/>
    <path d="M10.33,32.09s8.76-1.65,15.21,1.32C25.54,33.42,15.62,24.66,10.33,32.09Z" fill="#ccc"/>
    <path d="M14.3,36.06l10.91-1.32S18.27,31.76,14.3,36.06Z" fill="#ccc"/>
  </g>
</svg>