<svg xmlns="http://www.w3.org/2000/svg" width="101.42" height="64.44" viewBox="0 0 101.42 64.44">
<path d="M22.84,40.26c-.34.07-.67.15-1,.25C22.16,40.41,22.49,40.33,22.84,40.26Z" fill="none"/>
<path d="M25.54,40c-.42,0-.82,0-1.21.06C24.73,40,25.13,40,25.54,40Z" fill="none"/>
<path d="M24,40.07l-.84.12Q23.56,40.12,24,40.07Z" fill="none"/>
<path d="M20.62,41q-.43.19-.83.41Q20.19,41.15,20.62,41Z" fill="none"/>
<path d="M19.65,41.45a11.73,11.73,0,0,0-2.5,1.89A11.78,11.78,0,0,1,19.65,41.45Z" fill="none"/>
<path d="M15.71,45c-.27.37-.53.75-.77,1.14A12.2,12.2,0,0,1,15.71,45Z" fill="none"/>
<path d="M21.79,40.53c-.36.11-.7.24-1,.38C21.09,40.76,21.43,40.64,21.79,40.53Z" fill="none"/>
<path d="M26.78,40c-.4,0-.81-.06-1.23-.06C26,40,26.38,40,26.78,40Z" fill="none"/>
<path d="M32.25,43.74a10.77,10.77,0,0,0-13.55.1,12.79,12.79,0,0,0-2.48,2.9,10.81,10.81,0,1,0,18.88.42A12.94,12.94,0,0,0,32.25,43.74ZM25.77,59.62a7.17,7.17,0,1,1,7.17-7.17A7.18,7.18,0,0,1,25.77,59.62Z" fill="none"/>
<path d="M26.81,40A11.42,11.42,0,0,1,31,41.24,11.4,11.4,0,0,0,26.8,40Z" fill="none"/>
<path d="M39.06,54.36c0-.14-.05-.3-.09-.48C39,54.05,39,54.22,39.06,54.36Z" fill="none"/>
<path d="M39,53.8c0-.18-.08-.38-.13-.6C38.89,53.42,38.93,53.62,39,53.8Z" fill="none"/>
<path d="M32.16,41.94h0A11.2,11.2,0,0,0,31,41.27,11.12,11.12,0,0,1,32.16,41.94Z" fill="none"/>
<path d="M38.82,53.14a26,26,0,0,0-.71-2.54A26,26,0,0,1,38.82,53.14Z" fill="none"/>
<path d="M38.11,50.59a22.71,22.71,0,0,0-1.28-3.08A22.81,22.81,0,0,1,38.11,50.59Z" fill="none"/>
<path d="M14.94,46.14l0,0Z" fill="none"/>
<path d="M16.18,44.39a12.36,12.36,0,0,1,1-1.06A13.56,13.56,0,0,0,16.18,44.39Z" fill="none"/>
<path d="M11.74,55.64l0,.32Z" fill="none"/>
<path d="M11.8,55.25l0,.35Z" fill="none"/>
<path d="M14.77,46.44a25.57,25.57,0,0,0-3,8.8A25.59,25.59,0,0,1,14.77,46.44Z" fill="none"/>
<path d="M4.72,31.55a3.39,3.39,0,0,0-2,1.18A1.91,1.91,0,0,0,2.36,34a.62.62,0,0,1,0,.13l.48,18.31a.71.71,0,0,1-.64.72,1.55,1.55,0,0,0-.37.1l2.54-.09C4.25,38.89,4.45,33.56,4.72,31.55Z" fill="none"/>
<path d="M98.37,51.2a2.67,2.67,0,0,1-.35.23l.91,0A3.12,3.12,0,0,0,98.37,51.2Z" fill="none"/>
<path d="M99.83,52.23l-7.23.23a.41.41,0,0,1-.39-.22c-.06-.11-1.48-2.79-1.72-9.26-.08-2.23-.67-3.86-1.73-4.84a3.56,3.56,0,0,0-2.36-1c-.1,0-7.75,0-15.07,0h-.09c-6,0-6.17,3.72-6.17,3.88l-1.2,11.5a.42.42,0,0,1-.42.38h0c-7.45-.09-18.75-.17-19.67,0a.42.42,0,0,1-.28,0,.43.43,0,0,1-.29-.33C41.58,43.47,36.33,38.25,28,37.48a3.11,3.11,0,0,1-.47-.07h-.28c-16,0-17.13,15.92-17.14,16.08a.43.43,0,0,1-.41.4l-8.3.29v1.67a.7.7,0,0,1,0,.1.47.47,0,0,0,0,.26.35.35,0,0,0,.2,0c.93,0,7.89-.23,10-.3l0-.32v0l0-.35h0a25.57,25.57,0,0,1,3-8.8h0l.15-.26h0l0,0h0c.24-.39.5-.77.77-1.14.15-.21.31-.41.47-.61a13.56,13.56,0,0,1,1-1.06h0a11.73,11.73,0,0,1,2.5-1.89l.14-.08q.4-.22.83-.41l.14-.06c.33-.14.67-.27,1-.38h.05c.32-.1.65-.18,1-.25l.31-.06.84-.12.34,0c.39,0,.79-.06,1.21-.06s.83,0,1.23.06h0A11.4,11.4,0,0,1,31,41.24l0,0a11.2,11.2,0,0,1,1.15.68,12.3,12.3,0,0,1,4.66,5.56h0a22.71,22.71,0,0,1,1.28,3.08h0a26,26,0,0,1,.71,2.54l0,.07c0,.22.09.42.13.6v.07c0,.18.06.34.09.48l25,.3,1.3-5.19c1-5.5,5.1-5.52,5.7-5.49h0l14.09-.06c5.08.18,5.59,8.67,5.61,9,.2,2.83,2.33,2.92,5.83,2.71.7,0,1.41-.08,2.1-.07,1.1,0,1.27-.61,1.28-.88V53A1.65,1.65,0,0,0,99.83,52.23Z" fill="none"/>
<path d="M9.32,53.05c.25-2.21,2-13.16,12.74-15.88H15.21a.42.42,0,0,1-.4-.57L25.11,9.21H23.88c-4,6.15-6.52,14.69-6.56,14.83a7.08,7.08,0,0,1-5.6,5.27L5.56,31.37c-.18,1.24-.48,5.71-.32,21.83ZM6.22,33.35a.43.43,0,0,1,.42-.42h.87v0l.26-.11a4.6,4.6,0,0,1,1-.31,4.93,4.93,0,0,1,.87-.08A4.15,4.15,0,0,1,14,36.27a4.15,4.15,0,0,1-4.37,3.89,4.87,4.87,0,0,1-.87-.08,4.57,4.57,0,0,1-.91-.28.42.42,0,0,1-.16,0h0l-1-.1a.43.43,0,0,1-.39-.42Z" fill="none"/>
<path d="M47.39,52c2.79,0,7.53,0,15.67.1L64.22,41s0-.1,0-.25H47.39Z" fill="none"/>
<path d="M27.27,36.56h.36a.43.43,0,0,1,.17,0l.3,0c8.48.79,14.11,6.27,15.87,15.44.44,0,1.22-.06,2.57-.08V34.32c-2.16,0-12,.26-17.71.47-3,.11-4,.83-4.35,1.25a.92.92,0,0,0-.26.65.43.43,0,0,1,0,.08A22.62,22.62,0,0,1,27.27,36.56Z" fill="none"/>
<path d="M46.55,9.08,26,9.21,15.82,36.32h7.59a1.92,1.92,0,0,1,.39-.79c.78-1,2.46-1.5,5-1.59,5.7-.21,15.61-.42,17.74-.47ZM45.08,26.86H23.71a2.31,2.31,0,0,1-1.88-.8,2.49,2.49,0,0,1,.08-2.53l3.21-8.43c.09-.4.75-2.24,4.66-2.27l14.81-.12h.5Z" fill="none"/>
<path d="M29.9,13.84l-.19-.45-2,.27.16.4a8,8,0,0,1,1.9-.22Z" fill="#777"/>
<path d="M32,13.82l-.18-.44H31l.18.44Z" fill="#777"/>
<polygon points="7.51 33.77 7.07 33.77 7.07 38.93 7.51 38.97 7.51 33.77" fill="none"/>
<path d="M96.31,8.75l-48.91.32V39.9H64.46c.5-1.38,2-3.58,6.78-3.58h.09c7.32,0,15,0,15,0a4.32,4.32,0,0,1,2.94,1.17c1.25,1.14,1.93,3,2,5.45.19,5.21,1.18,7.9,1.51,8.66l3.78-.12a2.16,2.16,0,0,1-.77-1.65Z" fill="none"/>
<path d="M77.7,45.37l-6.32,0a9.67,9.67,0,0,0-2.89,6.79,9.38,9.38,0,1,0,18.76,0,9.41,9.41,0,0,0-2.36-6.85Zm.41,13.54a6.46,6.46,0,1,1,6.46-6.46A6.46,6.46,0,0,1,78.11,58.91Z" fill="none"/>
<path d="M96.34,5.85a4.49,4.49,0,0,0-1.19-3.68,3.9,3.9,0,0,0-2.91-.71h-.11L31.31,3.06c-2.55.33-4.86,2.49-6.85,5.3L96.32,7.9Z" fill="none"/>
<path d="M29.78,13.84a8,8,0,0,0-1.9.22l3.87,9.48L34.53,25,29.9,13.84Z" fill="#fff"/>
<path d="M33.82,18.22,32,13.82h-.79l2.6,6.3Z" fill="#fff"/>
<path d="M78.11,46.84a5.61,5.61,0,1,0,5.61,5.61A5.61,5.61,0,0,0,78.11,46.84ZM78,55.7a3.15,3.15,0,1,1,3.15-3.15A3.15,3.15,0,0,1,78,55.7Z" fill="#fff"/>
<path d="M25.77,46.13a6.32,6.32,0,1,0,6.32,6.32A6.33,6.33,0,0,0,25.77,46.13ZM25.65,56a3.47,3.47,0,1,1,3.47-3.47A3.47,3.47,0,0,1,25.65,56Z" fill="#fff"/>
<path d="M33.82,18.22v1.91l-2.6-6.3H29.9L34.53,25l-2.78-1.47-3.87-9.48c-1.61.41-1.79,1.25-1.79,1.27l0,.11-3.24,8.51c-.32.71-.39,1.26-.18,1.55s1,.39,1.23.38H44.08V13.73L32,13.82Z" fill="#cfcfcf"/>
<circle cx="78" cy="52.56" r="2.3" fill="#cfcfcf"/>
<circle cx="25.65" cy="52.57" r="2.62" fill="#cfcfcf"/>
<path d="M9.63,33.23a4.08,4.08,0,0,0-.72.06,3.39,3.39,0,0,0-.55.15v5.65a3.35,3.35,0,0,0,.55.15,4,4,0,0,0,.72.07,3.31,3.31,0,0,0,3.52-3A3.31,3.31,0,0,0,9.63,33.23Z" fill="#cfcfcf"/>
<path d="M16.18,44.39c-.16.2-.32.4-.47.61Q15.94,44.69,16.18,44.39Z" fill="#777"/>
<path d="M11.8,55.24h0Z" fill="#777"/>
<path d="M11.75,55.6v0Z" fill="#777"/>
<path d="M14.77,46.44h0l.16-.27h0Z" fill="#777"/>
<path d="M26.78,40h0Z" fill="#777"/>
<path d="M32.18,41.95a14.63,14.63,0,0,1,4.66,5.56h0A12.3,12.3,0,0,0,32.18,41.95Z" fill="#777"/>
<polygon points="14.94 46.14 14.94 46.14 14.94 46.14 14.94 46.14" fill="#777"/>
<polygon points="17.15 43.34 17.15 43.34 17.15 43.34 17.15 43.34" fill="#777"/>
<path d="M24.33,40l-.34,0Z" fill="#777"/>
<path d="M19.79,41.37l-.14.08Z" fill="#777"/>
<path d="M31,41.27l0,0Z" fill="#777"/>
<path d="M39,53.88v0Z" fill="#777"/>
<path d="M38.84,53.2l0-.07Z" fill="#777"/>
<path d="M38.12,50.59h0Z" fill="#777"/>
<path d="M20.76,40.9l-.14.06Z" fill="#777"/>
<path d="M21.84,40.51h0Z" fill="#777"/>
<path d="M23.15,40.2l-.31.06Z" fill="#777"/>
<path d="M6.61,39.74l1,.1h0a.42.42,0,0,0,.16,0,4.57,4.57,0,0,0,.91.28,4.87,4.87,0,0,0,.87.08A4.15,4.15,0,0,0,14,36.27a4.15,4.15,0,0,0-4.37-3.89,4.93,4.93,0,0,0-.87.08,4.6,4.6,0,0,0-1,.31l-.26.11v0H6.65a.43.43,0,0,0-.42.42v6A.43.43,0,0,0,6.61,39.74Zm1.76-6.29a3.39,3.39,0,0,1,.55-.15,4.08,4.08,0,0,1,.72-.06,3.31,3.31,0,0,1,3.52,3,3.31,3.31,0,0,1-3.52,3,4,4,0,0,1-.72-.07,3.35,3.35,0,0,1-.55-.15Zm-1.29.32h.44V39l-.44,0Z" fill="#777"/>
<path d="M29.77,12.84c-3.91,0-4.56,1.87-4.66,2.27l-3.21,8.43a2.49,2.49,0,0,0-.08,2.53,2.31,2.31,0,0,0,1.88.8H45.08V12.72h-.5Zm14.31,13H23.88c-.19,0-1,0-1.23-.38s-.14-.84.18-1.55l3.24-8.51,0-.11s.18-.86,1.79-1.27l-.16-.4,2-.27.19.45h1.31L31,13.39h.79l.18.44,12.08-.1Z" fill="#777"/>
<path d="M78.11,46a6.46,6.46,0,1,0,6.46,6.46A6.46,6.46,0,0,0,78.11,46Zm0,12.06a5.61,5.61,0,1,1,5.61-5.61A5.61,5.61,0,0,1,78.11,58.06Z" fill="#777"/>
<path d="M78,49.41a3.15,3.15,0,1,0,3.15,3.15A3.15,3.15,0,0,0,78,49.41Zm0,5.44a2.3,2.3,0,1,1,2.3-2.3A2.3,2.3,0,0,1,78,54.85Z" fill="#777"/>
<path d="M25.77,45.28a7.17,7.17,0,1,0,7.17,7.17A7.18,7.18,0,0,0,25.77,45.28Zm0,13.49a6.32,6.32,0,1,1,6.32-6.32A6.33,6.33,0,0,1,25.77,58.77Z" fill="#777"/>
<path d="M98.25,49.74a.71.71,0,0,0-.58.19,2,2,0,0,1-.32.26,1.61,1.61,0,0,1-.08-.38l.48-43.93c.06-2.17-.51-3.79-1.7-4.79a5.25,5.25,0,0,0-4-1L31.2,1.65c-3.26.42-6.1,3.24-8.43,6.74a.42.42,0,0,0-.35.41.4.4,0,0,0,0,.09,64.88,64.88,0,0,0-6.49,14.8,5.71,5.71,0,0,1-4.51,4.24l-.12,0L5.17,30a5.16,5.16,0,0,0-3.65,1.92A3.28,3.28,0,0,0,1,34.27L1.43,52A2,2,0,0,0,0,53.78v2A1.84,1.84,0,0,0,.4,57.15a1.61,1.61,0,0,0,1.28.53c1.11,0,10.3-.31,10.69-.32a.71.71,0,0,0,.68-.66A22.9,22.9,0,0,1,13.46,54a12.22,12.22,0,0,0,24.15.19c.09.53.13.88.14,1a.71.71,0,0,0,.7.63l26.19.32h0a.71.71,0,0,0,.69-.54l1.44-5.78c.41-2.3,1.43-3.39,2.37-3.91a10.83,10.83,0,1,0,19.53,6.33,12.7,12.7,0,0,0-1-5.26c1.5,2.24,1.74,6.05,1.74,6.11.31,4.45,4.37,4.22,7.33,4,.64,0,1.24-.07,1.8-.07h.26a2.42,2.42,0,0,0,2.66-2.27V53A3.42,3.42,0,0,0,98.25,49.74Zm.12,1.47a3.12,3.12,0,0,1,.56.21l-.91,0A2.67,2.67,0,0,0,98.37,51.2Zm-1.74.28-3.78.12c-.33-.76-1.32-3.45-1.51-8.66-.09-2.48-.77-4.31-2-5.45a4.32,4.32,0,0,0-2.94-1.17c-.08,0-7.72,0-15,0h-.09c-4.73,0-6.28,2.2-6.78,3.58H47.39V9.07l48.91-.32-.45,41.08A2.16,2.16,0,0,0,96.63,51.48ZM64.25,40.75c0,.15,0,.25,0,.25L63.07,52.08C54.93,52,50.19,52,47.39,52V40.75ZM31.31,3.06,92.13,1.47h.11a3.9,3.9,0,0,1,2.91.71,4.49,4.49,0,0,1,1.19,3.68l0,2.05-71.85.46C26.44,5.55,28.76,3.39,31.31,3.06ZM24.49,36c.36-.42,1.4-1.14,4.35-1.25,5.68-.21,15.55-.42,17.71-.47V52c-1.35,0-2.13,0-2.57.08-1.76-9.17-7.39-14.65-15.87-15.44l-.3,0a.43.43,0,0,0-.17,0h-.36a22.62,22.62,0,0,0-3.05.21.43.43,0,0,0,0-.08A.92.92,0,0,1,24.49,36Zm4.32-2.09c-2.54.09-4.23.63-5,1.59a1.92,1.92,0,0,0-.39.79H15.82L26,9.21l20.53-.13V33.46C44.42,33.51,34.5,33.72,28.8,33.93ZM5.56,31.37l6.16-2.05A7.08,7.08,0,0,0,17.32,24c0-.13,2.55-8.67,6.56-14.83h1.22L14.81,36.6a.42.42,0,0,0,.4.57h6.86C11.35,39.89,9.57,50.85,9.32,53.05l-4.08.14C5.08,37.07,5.38,32.6,5.56,31.37ZM2.22,53.22a.71.71,0,0,0,.64-.72L2.38,34.18a.62.62,0,0,0,0-.13,1.91,1.91,0,0,1,.32-1.32,3.39,3.39,0,0,1,2-1.18c-.27,2-.47,7.34-.33,21.68l-2.54.09A1.55,1.55,0,0,1,2.22,53.22ZM25.54,63a10.79,10.79,0,0,1-9.32-16.28,12.79,12.79,0,0,1,2.48-2.9,10.77,10.77,0,0,1,13.55-.1,12.94,12.94,0,0,1,2.86,3.43A10.8,10.8,0,0,1,25.54,63Zm52.33-1.29a9.48,9.48,0,0,1-9.38-9.55,9.67,9.67,0,0,1,2.89-6.79l6.32,0,7.2,0a9.41,9.41,0,0,1,2.36,6.85A9.48,9.48,0,0,1,77.88,61.73Zm20.84-6.14c-.69,0-1.4,0-2.1.07-3.5.2-5.64.12-5.83-2.71,0-.36-.53-8.85-5.61-9L71.09,44h0c-.6,0-4.72,0-5.7,5.49l-1.3,5.19-25-.3c0-.14-.05-.3-.09-.48V53.8c0-.18-.08-.38-.13-.6l0-.07a26,26,0,0,0-.71-2.54h0a22.81,22.81,0,0,0-1.28-3.08,14.63,14.63,0,0,0-4.66-5.56h0A11.12,11.12,0,0,0,31,41.27l0,0A11.42,11.42,0,0,0,26.81,40h0c-.4,0-.81-.06-1.23-.06s-.82,0-1.21.06l-.34,0q-.43,0-.84.12l-.31.06c-.34.07-.67.15-1,.25h-.05c-.36.11-.7.24-1,.38l-.14.06q-.43.19-.83.41l-.14.08a11.78,11.78,0,0,0-2.5,1.89h0a12.36,12.36,0,0,0-1,1.06q-.24.3-.47.61a12.2,12.2,0,0,0-.77,1.14h0l0,0-.16.27a25.59,25.59,0,0,0-3,8.8h0l0,.35v0l0,.32c-2.13.07-9.1.3-10,.3a.35.35,0,0,1-.2,0,.47.47,0,0,1,0-.26.7.7,0,0,0,0-.1V54.18l8.3-.29a.43.43,0,0,0,.41-.4c0-.16,1.1-16.08,17.14-16.08h.28a3.11,3.11,0,0,0,.47.07c8.3.77,13.55,6,15.18,15.11a.43.43,0,0,0,.29.33.42.42,0,0,0,.28,0c.92-.14,12.22-.06,19.67,0h0a.42.42,0,0,0,.42-.38l1.2-11.5c0-.16.14-3.88,6.17-3.88h.09c7.33,0,15,0,15.07,0a3.56,3.56,0,0,1,2.36,1c1.07,1,1.65,2.61,1.73,4.84.24,6.47,1.66,9.15,1.72,9.26a.41.41,0,0,0,.39.22l7.23-.23A1.65,1.65,0,0,1,100,53v1.73C100,55,99.82,55.63,98.72,55.59Z" fill="#777"/>
<path d="M25.65,49.1a3.47,3.47,0,1,0,3.47,3.47A3.47,3.47,0,0,0,25.65,49.1Zm0,6.09a2.62,2.62,0,1,1,2.62-2.62A2.62,2.62,0,0,1,25.65,55.19Z" fill="#777"/></svg>