<svg xmlns="http://www.w3.org/2000/svg" viewBox="0 0 286.89 81.88">
  <path d="M150.36,37.69c1.38.43,3.51.17,4.15-1.33s.57-3.71-1.05-4.51a3.85,3.85,0,0,0-4.54,1.22,2.92,2.92,0,0,0,1.41,4.62" fill="#444"/>
  <path d="M286.11,54.72a2,2,0,0,0-1.47-.4,6.72,6.72,0,0,1-4-.45,17.42,17.42,0,0,0,4.68-5.92c1-1.94,2-4.68.62-6.69-1.23-1.86-4.08-2.34-6.14-2-2.56.49-4.68,2.43-6.16,4.5-2,3.12-2.5,6.91-.26,10.13a4.2,4.2,0,0,1-2.42.46c-.37,0-.78-.06-1.14-.11.94-1,1.06-3.12.84-4.33-.38-2.14-1.94-3.82-3.31-5.39-.58-.66-1.17-1.32-1.79-1.93s-.1-1.93-.18-2.88a3.49,3.49,0,0,0-3.55-2.78A2.92,2.92,0,0,0,259,40.39c.13,1.18,2.07,2.2,1.72,3.2-.48,1.37-1,2.74-1.47,4.1-.65,1.82-1.33,3.66-3,4.76.5-3.85-2.13-7.11-4.91-9.43-.21-.09,0-2.57-.19-3.12a3.51,3.51,0,0,0-3.28-2.07A3.17,3.17,0,0,0,245,40.29a3.12,3.12,0,0,0,.1,1.87c.14.37,1.08,1.47,1,1.72a23,23,0,0,1-2.56,7.35c-1.34,2.24-3.7,5.32-6.34,2.77a13.59,13.59,0,0,0,5-7c.78-3.12.21-6.6-3.52-7a10.1,10.1,0,0,0-8.81,4.16,9.38,9.38,0,0,0-.07,9.87c-1.34.65-4.44,1.2-5.21-.63-.83-2,.72-4.86,1.05-6.85s.56-4.54-1-5.93c-1.73-1.56-4.68-.43-6.34.62,2.43-4.53,4.94-10.13,3.33-15.33a4.12,4.12,0,0,0-1.51-2.42,4.81,4.81,0,0,0-3.79,0c-2,.78-3.59,3.34-4.33,5.23a19,19,0,0,0-1,7.17c0,1.56.17,3.12.3,4.68q.12,1.33.24,2.67a7.92,7.92,0,0,1,.11,2.68c-1.15,4.12-3.66,8.49-8.58,7.8a5.09,5.09,0,0,1-4.3-5.7,5.27,5.27,0,0,1,1.95-3.81c.68-.48,3.27-1,2.91.54-.14.62-.7,1.08-.65,1.73s.69,1.14,1.22,1.45c.93.54,2.64.85,3.42-.17a6.83,6.83,0,0,0,.78-3.41,4,4,0,0,0-.88-3.31c-1.82-1.88-5.46-2.07-7.8-1.25-2.63.94-4.63,3.41-5.75,5.89a10.13,10.13,0,0,0-.87,4.35,7.57,7.57,0,0,0,.41,2.34,6.24,6.24,0,0,0,.48,1,3.24,3.24,0,0,1-.91.69c-.78.38-2.29.33-2.63-.65a8.29,8.29,0,0,1,0-3.68l.78-3.8a8.58,8.58,0,0,0,.3-3c-.21-1.41-1.68-1.7-2.92-1.72-2.95-.07-3.12,2.39-3.41,4.77s.12,5.11-1.51,7c-1.47,1.72-2.83-.09-2.92-1.67-.16-2.63.69-5.19,1.06-7.8.19-1.31.68-2.7.39-4a3.12,3.12,0,0,0-2.71-2.18c-3.12-.67-3.31,3.27-3.53,5.32a54,54,0,0,0-.34,6.41,18.21,18.21,0,0,0,.49,4.05c.09.36.34.58-.08.73a11.38,11.38,0,0,1-1.16.35,3.23,3.23,0,0,1-1.56.09c-1.56-.45-1.21-3.54-1.16-4.81.09-2.38.41-4.76.66-7.13.3-2.71.56-5.46,1.09-8.09.38-1.95,1.71-4,0-5.71-.83-.85-2.49-1.5-3.59-.78-1,.6-1.11,1.92-1.3,2.93-.6,3.17-1,6.38-1.31,9.6-5.63-1.86-11.09,3.87-11.76,9.05a9.3,9.3,0,0,0,.48,4.36c.48,1.32-2.34.85-3,.48-1-.63-1-2.05-.9-3.12.23-1.64.5-3.27.85-4.88a10.11,10.11,0,0,0,.59-3.27c-.23-2.06-4.32-2.92-5.34-1a7.41,7.41,0,0,0-.43,3c-.06,1.14-.1,2.28-.11,3.41v2.13c0,.6.23,1.52-.11,2a3.17,3.17,0,0,1-2.89,1.4c-1.77-.23-1.49-2.42-1.23-3.66.45-2.19,1.19-4.27,1.15-6.55,0-1.56-.45-3.41-2.08-4-2-.73-4.37.42-5.94,1.61a28.88,28.88,0,0,0,3.06-9.21c.27-2.24.16-5.57-1.56-7.26-1-1-2.68-.7-3.9-.33a6.14,6.14,0,0,0-2.81,2.55,13.25,13.25,0,0,0-2.34,7,48,48,0,0,0,.27,7.73q.18,2,.37,4c.15,1.56-1,3.12-2,4.3-1.69,2.06-4.39,4.21-7.22,3.24-3.2-1.12-4-5-2.42-7.69.49-.9,3-3.83,4.17-2.25,1,1.36-2.07,3.66-.44,4.51a2.9,2.9,0,0,0,2.71.12c1.7-.78,2.39-3.38,2.25-5.1C127,40.49,125.15,39.23,123,39c-4.78-.53-9,3.2-10.24,7.69a11.55,11.55,0,0,0-.47,3.64,8.83,8.83,0,0,0,.28,1.74,6.79,6.79,0,0,0,.25.78c.21.55,0,.52-.52.78-1.66.73-4.11.48-4-1.73s1.75-4.3,1.05-6.59-3.12-3.84-5.22-4.81c-.87-.37-1-.29-1.15-1.26a4.12,4.12,0,0,0-1.17-2.64,3.61,3.61,0,0,0-3-.78c-1.15.35-1.77,2-1.89,3.06a3.41,3.41,0,0,0,1.13,2.85c.37.34,1.06.63,1,1.14A20.43,20.43,0,0,1,98.93,45c-.24,2.24-.37,5.4-1.85,7.23-1,1.29-3.64,1.56-3.73-.47a23.59,23.59,0,0,1,1.27-7c.65-1.56,1.92-4.15.14-5.46a5.92,5.92,0,0,0-3.2-.94c-1.16,0-1.5.78-1.56,1.85a8.25,8.25,0,0,0-9,.23,12.11,12.11,0,0,0-5.29,8.82c-.27,3.39.82,7.56,4.19,9.09s7.17-.19,9.17-2.9c2.11,2.9,7.19,3.38,9.9,1.11,3.37-2.81,3.59-8,3.91-12,1.29.69,2.39,1.56,2.14,3.18s-1.22,3-1.56,4.5c-.91,3.7,3.65,5.78,6.58,5.72a7.48,7.48,0,0,0,4.81-1.69c.37-.32.37-.6.85-.37a8.15,8.15,0,0,0,1.37.51,14.86,14.86,0,0,0,3.26.48c3.32.17,7.23-.67,9.44-3.36-.37,1.56-1,3.82.25,5.15s4,1.64,4.4-.46c.27-1.65.52-3.31.78-5A30.12,30.12,0,0,1,136.55,48a6.35,6.35,0,0,1,1.88-3.12c.83-.6,2.34-.87,2,.58a32.74,32.74,0,0,0-1.05,4.73c-.13,1.56-.32,3.45.47,4.9a5.11,5.11,0,0,0,3.94,2.39l.18,0c1.89.06,4.07.1,5.46-1.36a5.36,5.36,0,0,0,4.2,2.26,8,8,0,0,0,2.91-.32,6.41,6.41,0,0,0,1.27-.55c.49-.28.67-.73,1.14-.31,3.12,2.6,7.67,2.21,9.77-1.4a5.71,5.71,0,0,0,4.4,2,9,9,0,0,0,2.64-.39c.62-.17,1.95-1,2.39-.65,2.34,2,7.12.9,8.7-1.62.11,1.93,2.29,2.63,3.9,2.72,2.08.12,4.46-.3,5.59-2.28a14.47,14.47,0,0,0,6.78,2.07,10.47,10.47,0,0,0,7.44-2.92c-.3,1.5-.66,3.12.78,4.12,1,.73,2.88,1.56,3.28-.23s.65-3.4,1-5.08c.55-2.53,1-6.6,3.34-8.23a2.79,2.79,0,0,1,1.62-.43c.78.05.41,1,.28,1.43a20.82,20.82,0,0,0-1,4.33c-.16,1.61-.39,3.45.43,4.93a5.17,5.17,0,0,0,4,2.34,1.43,1.43,0,0,0,.36.06,15.59,15.59,0,0,0,5.46-.6c.41-.12.78-.27,1.22-.42.78-.3.78-.34,1.41.12a13.65,13.65,0,0,0,2.88,1.48,8.13,8.13,0,0,0,5.74.38,10,10,0,0,0,4.14-3.53l.41-.57a36.48,36.48,0,0,0,3.12-8.27c.86,1.32,1.95,2.7,2.2,4.29a2.89,2.89,0,0,1-.35,2c-.24.4-1.73-.12-2.34,0A2.39,2.39,0,0,0,247,56.37a3.2,3.2,0,0,0,3.12,1.45,12.79,12.79,0,0,0,2.67-.37A10.27,10.27,0,0,1,255.6,57a7.57,7.57,0,0,0,3.9-1.84c2.25-2.11,3.34-5.36,4.4-8.18,1.4,1.95,2.08,3.9.94,6.24-1-.35-2.86-.15-3.31,1s.1,3.27,1.3,3.77a6.52,6.52,0,0,0,3.9-.09c1.29-.32,2.88.41,4.26.47A12.47,12.47,0,0,0,275.73,57c.42-.23.34-.36.78-.06a10.81,10.81,0,0,0,1.34.78,10.46,10.46,0,0,0,2.53.84,11.69,11.69,0,0,0,5.27-.19c.72-.19,1.15-.42,1.21-1.22a3,3,0,0,0-.78-2.45M88.9,44.62c-.59,2.46-1.2,5.14-2.74,7.21A5.23,5.23,0,0,1,83.34,54a2,2,0,0,1-2.26-1.68,9.35,9.35,0,0,1,1.74-7.21,4.53,4.53,0,0,1,2.5-1.56,5.89,5.89,0,0,1,2.2-.06,5.76,5.76,0,0,1,1.16.3c.55.21.34.33.23.78m44.62-5.25a25.45,25.45,0,0,1,.56-5.92,6.46,6.46,0,0,1,1.05-3.17c.23-.27.9-.66,1.22-.3.5.59-.09,2.09-.26,2.69a60.81,60.81,0,0,1-2.51,6.68m33.86,6.07a27.37,27.37,0,0,1-1,6.44c-.55,1.61-3.08,3.9-4.43,1.69-1.18-2-.27-4.37.58-6.24a5,5,0,0,1,4.92-3.12,12,12,0,0,1-.06,1.22m47.71-7.06a26.4,26.4,0,0,1,.62-6.31c.19-1,.37-2.24,1.18-2.9.26-.21.92-.48,1.16-.1.44.68-.15,2.09-.36,2.74a61.16,61.16,0,0,1-2.61,6.57M235.2,51l-.74.55c-2.18-1.7-1-6.06,1.18-7.23,1.56-.67,2.42,1.12,2.34,2.46-.07,1.75-1.47,3.26-2.81,4.23m42.52.65a6,6,0,0,1-.45-4.77c.43-1.5,1.72-3.48,3.5-3.36s1,2.67.5,3.62a14.28,14.28,0,0,1-3.55,4.51" fill="#444"/>
  <path d="M48.29,16.45a10.94,10.94,0,0,1,4,9.13c-.07,3.52-.7,7.27-3.72,9.35a38.26,38.26,0,0,1-3.71,2.47c-.55.34-2.6,1.08-2.6,1.89l-.58,2.53-.31,1.27c-.14.61-1.16.61-1.69.82L39.51,41a2,2,0,0,0-.37-1.33,1.16,1.16,0,0,0-1.86.87l.09,2.59q0,.64,0,1.28c0,.23-2.89.38-3.21.38q0-1.5.08-3a3.9,3.9,0,0,0,0-1.25c-.37-1.17-1.89-.73-2.1.3q-.07,2-.15,4a21.73,21.73,0,0,1-2.61-.35q0-1.56,0-3.12a3.63,3.63,0,0,0,0-1.11,1.08,1.08,0,0,0-2.12.34q-.07,1.65-.15,3.31a7.8,7.8,0,0,1-1.33-.55c-.15-1.2,0-2.95-.55-4-.46-.93-2.6-1.11-3.5-1.52a21.43,21.43,0,0,1-4.34-2.79c-3.9-3.24-5.71-10.85-3.12-15.33,2.95-5,11-6.13,16.23-6.49,5.82-.41,12.86-.27,17.77,3.35" fill="#fff"/>
  <path d="M58.12,26.57c.16-5.63-1.56-11.1-6.19-14.59-5.59-4.21-12.16-5.06-19-5s-14,1.31-19.61,5.25C8.82,15.43,7,20.48,7.45,25.88a34.91,34.91,0,0,0,.89,5.58,13.07,13.07,0,0,1-2.28,1.26A16.07,16.07,0,0,0,3.45,35l-.1.15a.17.17,0,0,0-.15,0c-.54,1-1.5,1.73-2,2.77v0a6.67,6.67,0,0,0,.89,8.58L7.2,50.82c.78.78,1.63,1.56,2.43,2.39,1.37,1.36,1.63,3.33,2.75,4.87l-1.48.59C6.51,59.84,2.44,64.38,2.61,69a9.05,9.05,0,0,0,1.48,4.54c1.2,2.42,4.39,4,7.21,4.19a39.33,39.33,0,0,0,11-1.43c1.68-.36,3.34-.88,5-1.38,1.26-.09,4.4-2.08,6.17-1.48,2.7.54,5.32,1.2,8,1.78a29.58,29.58,0,0,0,4.94,1.16c4.19.78,9,1.89,13.17.66a9.1,9.1,0,0,0,6.48-8.62A8.68,8.68,0,0,0,63,61.65a17.71,17.71,0,0,0-5.63-3.26c-.88-.29-1.79-.58-2.67-.89a21,21,0,0,0,1.56-2.92,5.41,5.41,0,0,1,.89-2v0c1-1.07,1.94-2.14,3-3.17l4.82-4.43a6.72,6.72,0,0,0,1.62-6.11,8.93,8.93,0,0,0-1.67-3.35A8.54,8.54,0,0,0,62.55,33c-.78-.65-1.95-1.26-2.67-2a20.12,20.12,0,0,1-2-1.08c0-1,.2-2.24.25-3.31M48.29,16.46a10.89,10.89,0,0,1,4,9.11c-.07,3.52-.7,7.27-3.72,9.35a38.26,38.26,0,0,1-3.71,2.47c-.55.34-2.6,1.08-2.6,1.89l-.58,2.53-.31,1.27c-.14.61-1.16.61-1.69.82L39.51,41a2,2,0,0,0-.37-1.33,1.16,1.16,0,0,0-1.86.87l.09,2.59q0,.64,0,1.28c0,.23-2.89.38-3.21.38q0-1.5.08-3a3.9,3.9,0,0,0,0-1.25c-.37-1.17-1.89-.73-2.1.3q-.07,2-.15,4a21.73,21.73,0,0,1-2.61-.35q0-1.56,0-3.12a3.63,3.63,0,0,0,0-1.11,1.08,1.08,0,0,0-2.12.34q-.07,1.65-.15,3.31a7.8,7.8,0,0,1-1.33-.55c-.15-1.2,0-2.95-.55-4-.46-.93-2.6-1.11-3.5-1.52a21.43,21.43,0,0,1-4.34-2.79c-3.9-3.24-5.71-10.85-3.12-15.33,2.95-5,11-6.13,16.23-6.49,5.82-.41,12.86-.27,17.77,3.35" fill="#444"/>
  <path d="M58.12,26.57c.16-5.63-1.56-11.1-6.19-14.59-5.59-4.21-12.16-5.06-19-5s-14,1.31-19.61,5.25C8.82,15.43,7,20.48,7.45,25.88a34.91,34.91,0,0,0,.89,5.58,13.07,13.07,0,0,1-2.28,1.26A16.07,16.07,0,0,0,3.45,35l-.1.15a.17.17,0,0,0-.15,0c-.54,1-1.5,1.73-2,2.77v0a6.67,6.67,0,0,0,.89,8.58L7.2,50.82c.78.78,1.63,1.56,2.43,2.39,1.37,1.36,1.63,3.33,2.75,4.87l-1.48.59C6.51,59.84,2.44,64.38,2.61,69a9.05,9.05,0,0,0,1.48,4.54c1.2,2.42,4.39,4,7.21,4.19a39.33,39.33,0,0,0,11-1.43c1.68-.36,3.34-.88,5-1.38,1.26-.09,4.4-2.08,6.17-1.48,2.7.54,5.32,1.2,8,1.78a29.58,29.58,0,0,0,4.94,1.16c4.19.78,9,1.89,13.17.66a9.1,9.1,0,0,0,6.48-8.62A8.68,8.68,0,0,0,63,61.65a17.71,17.71,0,0,0-5.63-3.26c-.88-.29-1.79-.58-2.67-.89a21,21,0,0,0,1.56-2.92,5.41,5.41,0,0,1,.89-2v0c1-1.07,1.94-2.14,3-3.17l4.82-4.43a6.72,6.72,0,0,0,1.62-6.11,8.93,8.93,0,0,0-1.67-3.35A8.54,8.54,0,0,0,62.55,33c-.78-.65-1.95-1.26-2.67-2a20.12,20.12,0,0,1-2-1.08c0-1,.2-2.24.25-3.31M48.29,16.46a10.89,10.89,0,0,1,4,9.11c-.07,3.52-.7,7.27-3.72,9.35a38.26,38.26,0,0,1-3.71,2.47c-.55.34-2.6,1.08-2.6,1.89l-.58,2.53-.31,1.27c-.14.61-1.16.61-1.69.82L39.51,41a2,2,0,0,0-.37-1.33,1.16,1.16,0,0,0-1.86.87l.09,2.59q0,.64,0,1.28c0,.23-2.89.38-3.21.38q0-1.5.08-3a3.9,3.9,0,0,0,0-1.25c-.37-1.17-1.89-.73-2.1.3q-.07,2-.15,4a21.73,21.73,0,0,1-2.61-.35q0-1.56,0-3.12a3.63,3.63,0,0,0,0-1.11,1.08,1.08,0,0,0-2.12.34q-.07,1.65-.15,3.31a7.8,7.8,0,0,1-1.33-.55c-.15-1.2,0-2.95-.55-4-.46-.93-2.6-1.11-3.5-1.52a21.43,21.43,0,0,1-4.34-2.79c-3.9-3.24-5.71-10.85-3.12-15.33,2.95-5,11-6.13,16.23-6.49,5.82-.41,12.86-.27,17.77,3.35" fill="#444"/>
  <path d="M60,37.4a9.52,9.52,0,0,0,.69.78.37.37,0,0,0,.19.34L58,41.2l-1.18,1.11a.68.68,0,0,0,.92,1l3.82-3.58a2.6,2.6,0,0,1-.15,1.48q.15-.16,0,.15L57.17,45.2a16.1,16.1,0,0,0-3.38-3.69c-.69-.55-3.63-3.12-4.47-2.42-1.19,1,2.38,2.55,3,3a16.41,16.41,0,0,1,3.9,4l-2,2.07h0c0,.09-.21.23-.24.34a14.66,14.66,0,0,0-1.56,2.12c-.49.91-.67,1.94-1.13,2.85-.84,1.64-2.1,1.67-3.51,2.39A4.36,4.36,0,0,0,46,57.17c-.49.55-.68.23-1.36,0s-1.45-.47-2.18-.69c-2.34-.71-4.77-.94-7-1.8a10.64,10.64,0,0,0,2.51-3A5.77,5.77,0,0,1,40,49.17a10,10,0,0,0,4.33-4.68,29.94,29.94,0,0,1,4-6.24c1.27-1.41,3.69-4.18,5.78-4.18-.61.48-5.1,3.9-3.41,4.5.7.25,1.47-1,1.89-1.42a26.17,26.17,0,0,1,3.24-2.63l.89.44c-.78.67-5,4-3.94,5,.78.78,4.45-3.71,5.18-4.35l.94.74c-.69.67-5.1,4.07-4.15,5,.66,1,4.59-3.52,5.14-4.05" fill="#fff"/>
  <path d="M59.75,65.39a3.9,3.9,0,0,1,.78,4.93c-1,1.65-2.63,2.14-4.47,2.2-4.6.15-9.56-1.07-14-2.25l-2.86-.78c-1-.26-1-1.68-1.4-2.53a20.6,20.6,0,0,0-1.23-2.55c-.4-.7-1.14-2.34-1.89-2.74C33.46,60,31.27,60,29.4,59.9a25.3,25.3,0,0,0-6.54.41c-.38-1.5-1.9-3.51-3.66-3.51a4,4,0,0,1-3-2.11c-1-1.69-1.43-3.36-2.89-4.81,0-.15-.09-.25-.3-.3,0-.06,0-.09-.09-.1-.39-.38-1.9-1.45-1.95-1.94A16.73,16.73,0,0,1,16,42.36c.59-.4,2.26-.94,1.77-1.93-.65-1-2.34.61-2.95,1a18.54,18.54,0,0,0-5,5.2L7.6,44.79c-.72-.59-1.9-1.24-2.34-2.07a2.46,2.46,0,0,1-.15-1.38L7.64,43.5,9,44.65c.78.65,1.89-.38,1.06-.94L7.9,41.91C7.33,41.43,5.57,40.5,6,39.76c.19-.19.5-.6.69-.84l2.8,2.49,1.47,1.28c.72.63,1.93-.35,1.09-.9L7.66,37.93c.89-.78.78-.88,1.8,0C10.7,39,11.88,40.11,13,41.27a.78.78,0,0,0,1,0c.44-.64,0-.92-.41-1.38a34.77,34.77,0,0,0-3.8-3.52c1.08-.64,1.3-.21,2.34.55s2.15,2.24,3.33,2.84.9-1,.39-1.5a26.71,26.71,0,0,0-3.5-2.88,1.56,1.56,0,0,1,.69.15c3.7,1.28,6.54,4.88,8.65,8.18,1,1.56,1.79,3.51,3.18,4.77s3.43,1.56,4.46,3.4a9.6,9.6,0,0,0,3.12,3.51c2.81,1.59,5.71,2,8.82,2.85a49.11,49.11,0,0,0,4.74,1.56c1.47.65,3.23,1,4.79,1.63,3.07,1,6.35,1.84,8.89,4" fill="#fff"/>
  <path d="M32.75,61.83C34.91,63.18,36.36,66.64,37,69c-.9-.15-1.82-.3-2.71-.49A22.55,22.55,0,0,1,28.22,67c-2.48-1-3.83-3-4.86-5.38a22.48,22.48,0,0,1,4.72-.41c1.39,0,3.45-.09,4.68.6" fill="#fff"/>
  <path d="M17.32,61.57c1.09-.44,2.21-.86,3.31-1.29.12.48.29.92.44,1.38,1.56,3.66,3.45,6.38,7.55,7.7-.94.25-1.85.54-2.77.84-2.81.65-5.58,1.5-8.46,2-2.46.48-6.1,1.39-8.26-.41s-1.88-4.57.06-6.33c2.25-2.05,5.33-2.9,8.12-3.94" fill="#fff"/>
  <path d="M48.49,28.3a6,6,0,0,0-2.07-3.45,1.11,1.11,0,0,0-.25-.2,6.31,6.31,0,0,0-4.3-1.56,5.22,5.22,0,0,0-4,1.48s-.1,0-.15.09a6.56,6.56,0,0,0-1.56,4.15,5.89,5.89,0,0,0,1.43,4.54,4.4,4.4,0,0,0,.44.5.1.1,0,0,1,.1.09,4.8,4.8,0,0,0,3.85.94,7.9,7.9,0,0,0,4.68-2.62c1.33-1.48,1.93-2.77,1.78-4" fill="#444"/>
  <path d="M19.5,26.81A4.68,4.68,0,0,0,19,28.54c-.15,1.08.44,2.42,1.68,3.9a7.09,7.09,0,0,0,4.5,2.62,4.16,4.16,0,0,0,3.73-1c.15-.1.25-.3.4-.4s0,0,0,0A6.24,6.24,0,0,0,30.63,29a6.88,6.88,0,0,0-1.36-4.06s-.09-.1-.15-.1a5,5,0,0,0-4-1.56A5.89,5.89,0,0,0,20.88,25a10.07,10.07,0,0,0-1.38,1.82" fill="#444"/>
  <path d="M35.55,34.91a2.44,2.44,0,0,0-3.41,0,2.52,2.52,0,0,0-.78,1.73,2.59,2.59,0,0,0,.2.89,4.39,4.39,0,0,1,4.54,0,2.59,2.59,0,0,0,.18-.91,2.34,2.34,0,0,0-.78-1.73" fill="#444"/>
  <path d="M151.14,72.33a.55.55,0,0,1-.24-.23.7.7,0,0,1-.06-.31V66.34a.78.78,0,0,1,.06-.33.39.39,0,0,1,.24-.21l.34-.08.38,0v-.38H149.4a2.42,2.42,0,0,1-.08.38,4.62,4.62,0,0,1-.17.55L147.3,71l-2.17-5.68h-2.58v.38a2,2,0,0,1,.48.08,1.05,1.05,0,0,1,.41.21.86.86,0,0,1,.23.34,1.56,1.56,0,0,1,.08.55v3.9a5.35,5.35,0,0,1-.07,1,.78.78,0,0,1-.26.46,1,1,0,0,1-.41.18,4,4,0,0,1-.51.08v.38h3.06v-.41a2.94,2.94,0,0,1-.48-.11,1.23,1.23,0,0,1-.48-.21.93.93,0,0,1-.25-.49,4.51,4.51,0,0,1-.09-1V66.17h.07l2.46,6.58h.27l2.58-6.44h.08v5.5a.63.63,0,0,1-.08.33.7.7,0,0,1-.24.23,1.19,1.19,0,0,1-.39.09h-.47v.38h3.34v-.36l-.39-.05A1.22,1.22,0,0,1,151.14,72.33Z" fill="#777"/>
  <path d="M157.12,72.36a.58.58,0,0,1-.22-.21.64.64,0,0,1-.07-.33q0-.7,0-1.29t0-1.35a2.34,2.34,0,0,0-.14-.87,1.23,1.23,0,0,0-.41-.54,1.44,1.44,0,0,0-.61-.27,4.4,4.4,0,0,0-.78-.06,2.34,2.34,0,0,0-.66.1,2.46,2.46,0,0,0-.58.26,1.72,1.72,0,0,0-.45.4.78.78,0,0,0,0,.89.44.44,0,0,0,.39.19.66.66,0,0,0,.47-.16.46.46,0,0,0,.16-.34,1.64,1.64,0,0,0,0-.38,1.43,1.43,0,0,1-.05-.31.83.83,0,0,1,.3-.17,1.22,1.22,0,0,1,.45-.09.9.9,0,0,1,.55.15,1,1,0,0,1,.3.34,1.1,1.1,0,0,1,.12.37,2.2,2.2,0,0,1,0,.27v.53a7.36,7.36,0,0,1-1,.38l-1,.34a3,3,0,0,0-.41.2,1.28,1.28,0,0,0-.35.29,1.31,1.31,0,0,0-.26.43,1.61,1.61,0,0,0-.09.55,1.25,1.25,0,0,0,.38,1,1.36,1.36,0,0,0,1,.36,2.08,2.08,0,0,0,1-.2,2.59,2.59,0,0,0,.78-.58h0a.9.9,0,0,0,.32.57,1,1,0,0,0,.66.19,1.48,1.48,0,0,0,.43-.05l.44-.15v-.34h-.36A.55.55,0,0,1,157.12,72.36Zm-1.29-.57a1.93,1.93,0,0,1-.48.44,1.21,1.21,0,0,1-.66.19.84.84,0,0,1-.58-.21.83.83,0,0,1-.23-.65A1.1,1.1,0,0,1,154,71a1.45,1.45,0,0,1,.42-.43,3.17,3.17,0,0,1,.63-.32l.78-.27Z" fill="#777"/>
  <path d="M163.35,72.32a.63.63,0,0,1-.21-.22.65.65,0,0,1-.07-.32V64.69l-.08-.08-2.15.12v.33l.55.07a1,1,0,0,1,.41.15.62.62,0,0,1,.21.28,1.08,1.08,0,0,1,.08.41V67.8a2.57,2.57,0,0,0-.61-.23,2.81,2.81,0,0,0-.73-.09,2.34,2.34,0,0,0-1,.21,2.39,2.39,0,0,0-.78.57,2.85,2.85,0,0,0-.55.9,3,3,0,0,0-.19,1.08,3.38,3.38,0,0,0,.19,1.14,2.78,2.78,0,0,0,.5.88,2.2,2.2,0,0,0,.73.56,2,2,0,0,0,.87.2,1.9,1.9,0,0,0,.84-.19,2.18,2.18,0,0,0,.69-.51h0v.49l.08.08,1.84-.12v-.35h-.35A.65.65,0,0,1,163.35,72.32Zm-1.29-.47a2.29,2.29,0,0,1-.47.41,1.25,1.25,0,0,1-.7.19,1.27,1.27,0,0,1-.69-.18,1.48,1.48,0,0,1-.48-.48,2.14,2.14,0,0,1-.29-.68,3.56,3.56,0,0,1-.09-.78,4.25,4.25,0,0,1,.12-1,2.45,2.45,0,0,1,.31-.78,1.56,1.56,0,0,1,.48-.48,1.1,1.1,0,0,1,.58-.16,1.25,1.25,0,0,1,.48.09,1.37,1.37,0,0,1,.36.22,1.32,1.32,0,0,1,.24.3,1.37,1.37,0,0,1,.14.3Z" fill="#777"/>
  <path d="M168.14,72.2a1.47,1.47,0,0,1-.78.23,1.68,1.68,0,0,1-.78-.18,1.49,1.49,0,0,1-.55-.49,2.26,2.26,0,0,1-.31-.78,4.16,4.16,0,0,1-.1-.94h3.48v-.35a3.06,3.06,0,0,0-.12-.88,2,2,0,0,0-.37-.7,1.76,1.76,0,0,0-.66-.5,2.42,2.42,0,0,0-1-.18,2.18,2.18,0,0,0-1,.23,2.34,2.34,0,0,0-.78.61,2.83,2.83,0,0,0-.48.89,3.17,3.17,0,0,0-.16,1,3.76,3.76,0,0,0,.16,1.08,2.56,2.56,0,0,0,.46.9,2.18,2.18,0,0,0,.78.61A2.59,2.59,0,0,0,167,73a2.22,2.22,0,0,0,1.27-.37,2.69,2.69,0,0,0,.87-1l-.37-.23A2.19,2.19,0,0,1,168.14,72.2ZM166,68.3a1.14,1.14,0,0,1,.93-.47.91.91,0,0,1,.55.16,1.08,1.08,0,0,1,.34.4,1.94,1.94,0,0,1,.16.57,4.26,4.26,0,0,1,.05.64h-2.43a2.16,2.16,0,0,1,.41-1.27Z" fill="#777"/>
  <path d="M173.6,66.24a.63.63,0,0,0,.49-.23.78.78,0,0,0,.2-.53.67.67,0,0,0-.19-.48.66.66,0,0,0-.5-.2.62.62,0,0,0-.47.22.73.73,0,0,0-.2.51.7.7,0,0,0,.2.49A.62.62,0,0,0,173.6,66.24Z" fill="#777"/>
  <path d="M174.48,72.4a.42.42,0,0,1-.23-.18.6.6,0,0,1-.07-.31V67.62l-.08-.08-1.86.12V68a2.12,2.12,0,0,1,.35.05,1,1,0,0,1,.3.11.69.69,0,0,1,.22.23.64.64,0,0,1,.08.31V72a.59.59,0,0,1-.07.31.38.38,0,0,1-.22.16l-.23,0h-.25v.35H175v-.34l-.25,0Z" fill="#777"/>
  <path d="M180.94,72.4a.42.42,0,0,1-.22-.18.62.62,0,0,1-.06-.3V69.19a2,2,0,0,0-.37-1.26,1.33,1.33,0,0,0-1.12-.47,2,2,0,0,0-.62.09,1.93,1.93,0,0,0-.47.21,2.81,2.81,0,0,0-.36.29l-.32.3h0v-.78l-.08-.08-1.75.12V68l.3,0a.78.78,0,0,1,.24.09.66.66,0,0,1,.22.25.72.72,0,0,1,.08.34v3.24a.59.59,0,0,1-.07.31.38.38,0,0,1-.22.16l-.23,0h-.25v.35h2.57v-.31H178a1,1,0,0,1-.24-.08.48.48,0,0,1-.23-.18.55.55,0,0,1-.08-.3v-3l.16-.23a1.17,1.17,0,0,1,.28-.27,1.81,1.81,0,0,1,.42-.22,1.44,1.44,0,0,1,.51-.09.83.83,0,0,1,.65.3,1.28,1.28,0,0,1,.27.87V72a.61.61,0,0,1-.07.31.39.39,0,0,1-.22.16,1,1,0,0,1-.24,0h-.27v.35h2.56v-.36h-.26Z" fill="#777"/>
  <path d="M184.77,65.68l.39.06a1.81,1.81,0,0,1,.39.12.45.45,0,0,1,.24.22.78.78,0,0,1,.06.31v5.46a.7.7,0,0,1-.07.33.47.47,0,0,1-.23.2,1.29,1.29,0,0,1-.34.06l-.44,0v.38H188v-.38a2.8,2.8,0,0,1-.41-.06,1.83,1.83,0,0,1-.34-.09.51.51,0,0,1-.24-.23.69.69,0,0,1-.07-.31V69.2h.9a2.1,2.1,0,0,1,.58.07.78.78,0,0,1,.41.27,1.36,1.36,0,0,1,.2.43,2.34,2.34,0,0,1,.11.53h.4v-3h-.4a2.2,2.2,0,0,1-.12.53,1.09,1.09,0,0,1-.19.37,1,1,0,0,1-.37.26,1.82,1.82,0,0,1-.62.09H187v-3h2.18a1.15,1.15,0,0,1,.68.53,2.74,2.74,0,0,1,.47.9h.4V65.3h-6Z" fill="#777"/>
  <path d="M194.5,67.48a1.56,1.56,0,0,0-.78.23,2.39,2.39,0,0,0-.73.65h0v-.78l-.08-.08-1.75.12V68l.3,0a.78.78,0,0,1,.24.09.65.65,0,0,1,.22.26.78.78,0,0,1,.08.33v3.24a.59.59,0,0,1-.07.31.38.38,0,0,1-.22.16l-.23,0h-.25v.35H194v-.32h-.37a1.4,1.4,0,0,1-.34-.08.43.43,0,0,1-.23-.18.57.57,0,0,1-.07-.3V68.86a1.72,1.72,0,0,1,.57-.58,1.19,1.19,0,0,1,.58-.2v.19a1.14,1.14,0,0,0,0,.21.47.47,0,0,0,.16.34.62.62,0,0,0,.45.16.45.45,0,0,0,.41-.21.88.88,0,0,0,.13-.48.78.78,0,0,0-.21-.58A.73.73,0,0,0,194.5,67.48Z" fill="#777"/>
  <path d="M200.08,72.36a.58.58,0,0,1-.22-.21.64.64,0,0,1-.07-.33V69.19a2.34,2.34,0,0,0-.14-.87,1.23,1.23,0,0,0-.41-.54,1.44,1.44,0,0,0-.61-.27,4.4,4.4,0,0,0-.78-.06,2.34,2.34,0,0,0-.66.1,2.46,2.46,0,0,0-.58.26,1.72,1.72,0,0,0-.45.4.78.78,0,0,0,0,.89.44.44,0,0,0,.39.19.66.66,0,0,0,.47-.16.46.46,0,0,0,.16-.34,1.64,1.64,0,0,0,0-.38,1.43,1.43,0,0,1-.05-.31.83.83,0,0,1,.3-.17,1.22,1.22,0,0,1,.45-.09.9.9,0,0,1,.55.15,1,1,0,0,1,.3.34,1.1,1.1,0,0,1,.12.37,2.2,2.2,0,0,1,0,.27v.53a7.36,7.36,0,0,1-1,.38l-1,.34a3,3,0,0,0-.41.2,1.28,1.28,0,0,0-.35.29,1.31,1.31,0,0,0-.26.43,1.61,1.61,0,0,0-.09.55,1.25,1.25,0,0,0,.38,1,1.36,1.36,0,0,0,1,.36,2.08,2.08,0,0,0,1-.19,2.59,2.59,0,0,0,.78-.58h0a.9.9,0,0,0,.32.57,1,1,0,0,0,.66.19,1.48,1.48,0,0,0,.43-.05l.44-.15v-.34h-.29A.55.55,0,0,1,200.08,72.36Zm-1.28-.57a1.93,1.93,0,0,1-.48.44,1.21,1.21,0,0,1-.66.19.84.84,0,0,1-.58-.21.83.83,0,0,1-.23-.65A1.1,1.1,0,0,1,197,71a1.45,1.45,0,0,1,.42-.43,3.17,3.17,0,0,1,.63-.32l.78-.27Z" fill="#777"/>
  <path d="M206.53,72.4a.42.42,0,0,1-.22-.18.62.62,0,0,1-.06-.3V69.19a2,2,0,0,0-.37-1.26,1.33,1.33,0,0,0-1.12-.47,2,2,0,0,0-.62.09,1.93,1.93,0,0,0-.47.21,2.81,2.81,0,0,0-.36.29l-.32.3h0v-.78l-.08-.08-1.75.12V68l.3,0a.78.78,0,0,1,.24.09.66.66,0,0,1,.22.25.73.73,0,0,1,.08.34v3.24a.59.59,0,0,1-.07.31.38.38,0,0,1-.22.16l-.23,0h-.25v.35h2.57v-.31h-.34a1,1,0,0,1-.24-.08.48.48,0,0,1-.23-.18.55.55,0,0,1-.08-.3v-3l.16-.23a1.17,1.17,0,0,1,.28-.27,1.81,1.81,0,0,1,.42-.22,1.44,1.44,0,0,1,.51-.09.83.83,0,0,1,.65.3,1.28,1.28,0,0,1,.27.87V72a.61.61,0,0,1-.07.31.39.39,0,0,1-.22.16,1,1,0,0,1-.24,0h-.27v.35H207v-.36h-.26Z" fill="#777"/>
  <path d="M211.21,72.17a1.43,1.43,0,0,1-.87.25,1.35,1.35,0,0,1-1.15-.62,2.75,2.75,0,0,1-.44-1.61,4.16,4.16,0,0,1,.12-1.08,2.15,2.15,0,0,1,.32-.72,1.25,1.25,0,0,1,.45-.41,1.12,1.12,0,0,1,.48-.11,1.42,1.42,0,0,1,.41.05.47.47,0,0,1,.29.22,2.67,2.67,0,0,1-.08.37,2,2,0,0,0-.06.49.48.48,0,0,0,.17.36.69.69,0,0,0,.49.16.46.46,0,0,0,.42-.2.87.87,0,0,0,.12-.47,1.2,1.2,0,0,0-.48-1,2,2,0,0,0-1.26-.37,2.35,2.35,0,0,0-1.82.84,2.85,2.85,0,0,0-.51.88,3.4,3.4,0,0,0,.47,3.06,2.22,2.22,0,0,0,1.79.78,2.18,2.18,0,0,0,1.18-.39,2.75,2.75,0,0,0,.93-1l-.34-.23A2.44,2.44,0,0,1,211.21,72.17Z" fill="#777"/>
  <path d="M216.9,71.4a2.19,2.19,0,0,1-.66.78,1.47,1.47,0,0,1-.78.23,1.68,1.68,0,0,1-.78-.18,1.49,1.49,0,0,1-.55-.49,2.26,2.26,0,0,1-.31-.78,4.16,4.16,0,0,1-.1-.94h3.48v-.35a3.06,3.06,0,0,0-.12-.88,2,2,0,0,0-.37-.7,1.76,1.76,0,0,0-.66-.5,2.42,2.42,0,0,0-1-.18,2.18,2.18,0,0,0-1,.23,2.34,2.34,0,0,0-.78.61,2.83,2.83,0,0,0-.48.89,3.17,3.17,0,0,0-.16,1,3.76,3.76,0,0,0,.16,1.08,2.56,2.56,0,0,0,.46.9,2.18,2.18,0,0,0,.78.61,2.59,2.59,0,0,0,1.11.23,2.22,2.22,0,0,0,1.27-.37,2.69,2.69,0,0,0,.88-1Zm-2.83-3.07a1.14,1.14,0,0,1,.93-.47.91.91,0,0,1,.55.16,1.08,1.08,0,0,1,.34.4A1.94,1.94,0,0,1,216,69a4.27,4.27,0,0,1,.05.64h-2.43A2.16,2.16,0,0,1,214.07,68.33Z" fill="#777"/>
</svg>