<svg xmlns="http://www.w3.org/2000/svg" viewBox="0 0 101.42 74.59">
  <g>
    <polygon points="64.35 53.3 63.55 55.48 64.8 55.48 64.35 53.3" fill="none"/>
    <path d="M94.13,62.09a.68.68,0,1,0,.64.72s0,0,0,0a.63.63,0,0,0-.59-.67Z" fill="none"/>
    <path d="M87.51,18.13A2.52,2.52,0,0,0,90.07,16a1.85,1.85,0,0,0-.35-1.52,1.81,1.81,0,0,0-1.43-.57,2.53,2.53,0,0,0-2.53,2.18,1.62,1.62,0,0,0,1.76,2.07Z" fill="none"/>
    <path d="M48.29,18.13A2.52,2.52,0,0,0,50.85,16a1.85,1.85,0,0,0-.35-1.52,1.81,1.81,0,0,0-1.43-.57,2.53,2.53,0,0,0-2.53,2.18,1.62,1.62,0,0,0,1.76,2.07Z" fill="none"/>
    <path d="M87.91,62.07a.5.5,0,0,0-.5.5h1.05a.5.5,0,0,0-.5-.5Z" fill="none"/>
    <path d="M77.93,10.92h0a1.46,1.46,0,0,0-.17-1.19c-.36-.42-1.2-.42-2.09-.42h-.38l-.53,3.22h.33C76.7,12.53,77.7,12.45,77.93,10.92Z" fill="none"/>
    <path d="M98.4,62.09a.68.68,0,1,0,.64.72s0,0,0,0a.63.63,0,0,0-.59-.67Z" fill="none"/>
    <path d="M38.72,10.92h0a1.45,1.45,0,0,0-.17-1.19c-.36-.42-1.2-.42-2.09-.42h-.38l-.53,3.22h.33C37.48,12.53,38.48,12.45,38.72,10.92Z" fill="none"/>
    <path d="M81.17,62.09a.68.68,0,1,0,.64.72s0,0,0,0a.63.63,0,0,0-.59-.67Z" fill="none"/>
    <path d="M74.26,13.38h.83c1.48,0,3.33,0,3.69-2.33a2.22,2.22,0,0,0-.36-1.87c-.61-.71-1.69-.71-2.74-.71H75.3a.88.88,0,0,0-.87.75l-.58,3.68a.42.42,0,0,0,.34.48h.07Zm1-4.07h.38c.89,0,1.73,0,2.09.42a1.46,1.46,0,0,1,.17,1.19h0c-.23,1.53-1.23,1.61-2.85,1.61h-.33Z" fill="#777"/>
    <path d="M69,21.22a.88.88,0,0,0,.67.31h2.82a1,1,0,0,0,.95-.81l.63-4a.34.34,0,0,1,.33-.29h1.74c3.85,0,6.1-1.88,6.68-5.58A4.63,4.63,0,0,0,82,7a5.5,5.5,0,0,0-4.33-1.55h-5.5a1.18,1.18,0,0,0-1.17,1l-2.22,14.1A.88.88,0,0,0,69,21.22ZM71.89,6.54a.34.34,0,0,1,.33-.29h5.5A4.71,4.71,0,0,1,81.4,7.51a3.84,3.84,0,0,1,.6,3.21c-.52,3.28-2.43,4.87-5.84,4.87H74.43a1.19,1.19,0,0,0-1.17,1l-.63,4a.11.11,0,0,1-.11.09H69.67Z" fill="#777"/>
    <path d="M35,13.38h.83c1.48,0,3.33,0,3.69-2.33a2.22,2.22,0,0,0-.36-1.87c-.61-.71-1.69-.71-2.74-.71H36a.88.88,0,0,0-.87.75l-.58,3.68a.42.42,0,0,0,.34.48H35Zm1-4.07h.38c.89,0,1.73,0,2.09.42a1.45,1.45,0,0,1,.17,1.19h0c-.23,1.54-1.23,1.61-2.85,1.61h-.33Z" fill="#777"/>
    <path d="M30.48,21.53H33.1a1.18,1.18,0,0,0,1.17-1l.6-3.8a.34.34,0,0,1,.33-.29H37c3.85,0,6.1-1.88,6.68-5.58A4.63,4.63,0,0,0,42.83,7,5.5,5.5,0,0,0,38.5,5.41H33a1.18,1.18,0,0,0-1.17,1l-2.22,14.1a.88.88,0,0,0,.75,1h.12Zm2.19-15A.34.34,0,0,1,33,6.26h5.5a4.71,4.71,0,0,1,3.68,1.26,3.84,3.84,0,0,1,.61,3.21C42.28,14,40.37,15.59,37,15.59H35.21a1.18,1.18,0,0,0-1.17,1l-.6,3.81a.34.34,0,0,1-.33.28H30.45Z" fill="#777"/>
    <path d="M43.22,20.29a4.53,4.53,0,0,0,3.64,1.49A5.57,5.57,0,0,0,50,20.84a.88.88,0,0,0,.86.69h2.37a1.18,1.18,0,0,0,1.17-1l1.42-9a.88.88,0,0,0-.75-1H52.3a.88.88,0,0,0-.83.58,4.9,4.9,0,0,0-3-.83,6.48,6.48,0,0,0-6.3,5.65A5.39,5.39,0,0,0,43.22,20.29ZM43,16A5.64,5.64,0,0,1,48.46,11c.79,0,2.21.12,2.76.92l.18.27a.43.43,0,0,0,.77-.18l.15-.76h2.63l-1.42,9a.34.34,0,0,1-.33.29H50.8l.12-.73a.43.43,0,0,0-.74-.35,4.66,4.66,0,0,1-3.32,1.36,3.67,3.67,0,0,1-3-1.19A4.54,4.54,0,0,1,43,16Z" fill="#777"/>
    <path d="M48.29,19a3.35,3.35,0,0,0,3.39-2.87h0a2.68,2.68,0,0,0-.54-2.2A2.63,2.63,0,0,0,49.06,13a3.36,3.36,0,0,0-3.37,2.89,2.46,2.46,0,0,0,2.6,3Zm-1.76-2.92a2.53,2.53,0,0,1,2.53-2.18,1.81,1.81,0,0,1,1.43.57A1.85,1.85,0,0,1,50.85,16a2.52,2.52,0,0,1-2.55,2.16,1.62,1.62,0,0,1-1.76-2.07Z" fill="#777"/>
    <path d="M59.16,20l-2.62,3.69a.88.88,0,0,0,.72,1.39H59.9a1.19,1.19,0,0,0,1-.51l8.8-12.7a.88.88,0,0,0-.7-1.36H66.31a1.19,1.19,0,0,0-1,.52l-3.15,4.64-1.29-4.31a1.18,1.18,0,0,0-1.14-.85h-2.6a.88.88,0,0,0-.84,1.17Zm.59-8.67a.34.34,0,0,1,.33.24l1.55,5.17a.43.43,0,0,0,.76.12L66,11.49a.34.34,0,0,1,.28-.15H69v.05l-8.8,12.7a.34.34,0,0,1-.28.15l-2.67,0L60,20.32A.42.42,0,0,0,60,20l-2.88-8.6Z" fill="#777"/>
    <path d="M94.78,21.22a.88.88,0,0,0,.67.31h2.27a1.18,1.18,0,0,0,1.17-1l2.22-14.1a.88.88,0,0,0-.75-1H97.71a.88.88,0,0,0-.87.75L94.58,20.51A.88.88,0,0,0,94.78,21.22Zm2.9-14.94-.42-.07,3,.08L98,20.39a.34.34,0,0,1-.33.29h-2.3Z" fill="#777"/>
    <path d="M.54,22a1.07,1.07,0,0,0,.82.38H5.51L5.27,24a1,1,0,0,0,.84,1.14h4.08A1.35,1.35,0,0,0,11.52,24l.78-4.89.05-.27a.52.52,0,0,1,.51-.44h.59c4.53,0,7.24-2.14,8.07-6.35.41-2.1.11-3.75-.88-4.88a4,4,0,0,0-.93-.77V4.57a.65.65,0,0,0,0-.31c0-.1,0-.18,0-.26a1.32,1.32,0,0,1-.09-.3c0-.1,0-.16-.08-.24a.76.76,0,0,1-.13-.29,1.56,1.56,0,0,0-.1-.22c0-.07-.12-.21-.19-.31l-.11-.18A5.7,5.7,0,0,0,18.54,2a4.53,4.53,0,0,0-1-.86,9.62,9.62,0,0,0-5-1.11H4.92A1.49,1.49,0,0,0,3.44,1.25L.3,21.16a1,1,0,0,0,.1.59A1.06,1.06,0,0,0,.54,22Zm19-14.76a3,3,0,0,1,.46.46c.82.94,1,2.3.69,4.16-.74,3.81-3.11,5.67-7.23,5.67h-.59a1.36,1.36,0,0,0-1.35,1.14l-.79,4.94v.22a.52.52,0,0,1-.51.44h-4a.14.14,0,0,1-.14-.14v0l.32-2h0l1.13-7.18a.65.65,0,0,1,.64-.55h2.21c5.09,0,8.16-2.38,9.13-7.1ZM7.78,13.52,8.86,6.66a.52.52,0,0,1,.51-.44h5.91a11.93,11.93,0,0,1,1.88.14l.47.09.44.11.21.07.48.2v.1c-.86,4.39-3.58,6.53-8.33,6.53H8.21A1.51,1.51,0,0,0,7.78,13.52ZM4.28,1.38A.65.65,0,0,1,4.92.83h7.54a10.07,10.07,0,0,1,4,.66,4.07,4.07,0,0,1,1.46,1,4.44,4.44,0,0,1,.48.67l0,.09a3.67,3.67,0,0,1,.3.7v.13a4.19,4.19,0,0,1,.13.77V5a6.24,6.24,0,0,1,0,.9V6l-.33-.12-.24-.08-.49-.13-.52-.1a12.82,12.82,0,0,0-2-.15H9.37a1.39,1.39,0,0,0-.59.13,1.37,1.37,0,0,0-.76,1l-1.26,8h0l-1.11,7H1.36a.22.22,0,0,1-.22-.26Z" fill="#777"/>
    <path d="M26.78,51.46a2.94,2.94,0,0,0-3-2.89H14.52a.43.43,0,0,0-.42.42V51.2a5.05,5.05,0,0,0-4.4-2.6H5.35A5.08,5.08,0,0,0,.28,53.67v1.24A5.08,5.08,0,0,0,5.35,60H9.69a5,5,0,0,0,4.4-2.6v2.14a.42.42,0,0,0,.42.42H23.8a2.94,2.94,0,0,0,3-2.88h0a2.91,2.91,0,0,0-2.26-2.8A2.91,2.91,0,0,0,26.78,51.46ZM9.69,59.13H5.35a4.23,4.23,0,0,1-4.22-4.22V53.67a4.23,4.23,0,0,1,4.22-4.22H9.69a4.23,4.23,0,0,1,4.22,4H7.51a.43.43,0,0,0-.42.42v.66a.43.43,0,0,0,.42.42h6.4A4.23,4.23,0,0,1,9.69,59.13Zm16.24-2.08a2.09,2.09,0,0,1-2.12,2H14.94V55h8.87A2.09,2.09,0,0,1,25.93,57ZM23.8,53.5H14.94V49.42h8.87a2,2,0,1,1,0,4.08Z" fill="#777"/>
    <path d="M45.82,60.25h2.89a.43.43,0,0,0,.42-.36l1.81-11.1a.42.42,0,0,0-.34-.48h-3a.43.43,0,0,0-.42.36L45.4,59.76a.42.42,0,0,0,.34.48ZM48,49.15h2L48.35,59.4h-2Z" fill="#777"/>
    <path d="M62.95,56.33h2.37a.42.42,0,0,0,.42-.51l-.85-4.16a.42.42,0,0,0-.82-.06l-1.52,4.16a.42.42,0,0,0,.4.57Zm1.4-3,.45,2.18H63.55Z" fill="#777"/>
    <path d="M58.5,60.25h3a.43.43,0,0,0,.4-.28l.5-1.37h3l.27,1.31a.42.42,0,0,0,.42.34h2.65a.42.42,0,0,0,.42-.51l-2.31-11.1a.42.42,0,0,0-.42-.34H64.14a1.74,1.74,0,0,0-1.73,1.09l-4.3,10.27a.42.42,0,0,0,.39.59Zm4.71-10.56a.91.91,0,0,1,.93-.54h2L68.28,59.4H66.47l-.27-1.31a.42.42,0,0,0-.42-.34H62.11a.43.43,0,0,0-.4.28l-.5,1.37H59.14Z" fill="#777"/>
    <path d="M50.31,59.77a8.46,8.46,0,0,0,3.45.67c2.16,0,5.37-1.12,5.37-4.23,0-2-1.65-2.88-2.85-3.53-.53-.28-1.18-.64-1.18-.88,0-.09,0-.19.2-.3a4.24,4.24,0,0,1,3.22.26.43.43,0,0,0,.62-.3l.41-2.38a.42.42,0,0,0-.27-.47,8.74,8.74,0,0,0-2.75-.51c-1.82,0-5.27.86-5.27,4.1,0,1.92,1.56,2.74,2.7,3.35.67.35,1.3.69,1.3,1.06,0,.08,0,.27-.34.43a4.64,4.64,0,0,1-3.74-.48.43.43,0,0,0-.69.26l-.43,2.49A.42.42,0,0,0,50.31,59.77Zm.93-2.19a5.59,5.59,0,0,0,4.06.23,1.31,1.31,0,0,0,.83-1.2c0-.89-.85-1.34-1.75-1.81-1.11-.58-2.25-1.19-2.25-2.6C52.12,49,56.49,49,56.54,49a7.69,7.69,0,0,1,2.12.35l-.26,1.49a4.79,4.79,0,0,0-3.53,0,1.17,1.17,0,0,0-.62,1c0,.75.75,1.16,1.63,1.63,1.13.61,2.41,1.3,2.41,2.78,0,2.48-2.71,3.38-4.52,3.38A8.27,8.27,0,0,1,51,59.13Z" fill="#777"/>
    <path d="M39.76,49.68A1.66,1.66,0,0,0,38,48.3H33.41a.42.42,0,0,0-.41.31l0,.19a.43.43,0,0,0,.3.53h0A10.62,10.62,0,0,1,36,50.47L38.48,60a.42.42,0,0,0,.41.32h3A.42.42,0,0,0,42.3,60l4.6-11.1a.42.42,0,0,0-.39-.59H43.39a.43.43,0,0,0-.4.28l-2.24,6.2v-.13h0Zm-4.43-.53H38a.94.94,0,0,1,1,.66l.48,2.44-.08-.09c-.12-.15-.26-.31-.41-.47l-.23-.25a9.08,9.08,0,0,0-.77-.71c-.21-.17-.42-.33-.65-.49A12.09,12.09,0,0,0,35.33,49.15ZM41,56.51l2.65-7.36h2.17L41.62,59.4h-2.4l-2.14-8.22.3.22A8.17,8.17,0,0,1,38,52l.14.15a5.13,5.13,0,0,1,.39.44l.12.15.32.42.09.14.25.39.07.13.18.33.06.13.11.23,0,.13v.22l.32,1.62a.48.48,0,0,0,.9.05Z" fill="#777"/>
    <path d="M85,53.42a1.18,1.18,0,0,0,.09.55A4.85,4.85,0,0,1,85,53.42Z" fill="#777"/>
    <path d="M90.83,52.34a8.06,8.06,0,0,1,0,.82A8,8,0,0,0,90.83,52.34Z" fill="#777"/>
    <path d="M89.17,57.23l-.28.35Z" fill="#777"/>
    <path d="M85.43,55.07c.05.15.11.3.17.45A4.13,4.13,0,0,1,85.43,55.07Z" fill="#777"/>
    <path d="M90.79,51.52a8.06,8.06,0,0,1,0,.82A8.06,8.06,0,0,0,90.79,51.52Z" fill="#777"/>
    <path d="M90.75,53.43a1.2,1.2,0,0,1-.08.53C90.7,53.79,90.72,53.61,90.75,53.43Z" fill="#777"/>
    <path d="M85.74,55.83l.21.42C85.88,56.11,85.81,56,85.74,55.83Z" fill="#777"/>
    <path d="M90,55.84c-.06.14-.13.27-.2.4A.8.8,0,0,0,90,55.84Z" fill="#777"/>
    <path d="M86.38,47.74l-.26.4Z" fill="#777"/>
    <path d="M84.94,52.34a8.07,8.07,0,0,0,0,.82A8.07,8.07,0,0,1,84.94,52.34Z" fill="#777"/>
    <path d="M86.88,47.09l-.29.36Z" fill="#777"/>
    <path d="M85.6,49.16l-.18.46C85.48,49.46,85.53,49.31,85.6,49.16Z" fill="#777"/>
    <path d="M89.63,56.56l-.24.37Z" fill="#777"/>
    <path d="M86,48.43c-.08.14-.15.29-.22.43A.93.93,0,0,1,86,48.43Z" fill="#777"/>
    <path d="M90.58,54.29a2,2,0,0,1-.12.47C90.51,54.6,90.54,54.44,90.58,54.29Z" fill="#777"/>
    <path d="M85,51.52a8.08,8.08,0,0,0,0,.82A8.08,8.08,0,0,1,85,51.52Z" fill="#777"/>
    <path d="M90.34,55.08c-.05.14-.1.29-.16.43C90.24,55.37,90.29,55.23,90.34,55.08Z" fill="#777"/>
    <path d="M85.11,50.71a3.5,3.5,0,0,1-.09.55A1.76,1.76,0,0,1,85.11,50.71Z" fill="#777"/>
    <path d="M85.31,49.92c-.05.16-.09.33-.13.49C85.22,50.25,85.26,50.08,85.31,49.92Z" fill="#777"/>
    <path d="M85.18,54.28a1.72,1.72,0,0,0,.13.48C85.26,54.6,85.22,54.44,85.18,54.28Z" fill="#777"/>
    <path d="M88.89,47.1l.29.36Z" fill="#777"/>
    <path d="M89.82,48.43l.21.41A2.28,2.28,0,0,0,89.82,48.43Z" fill="#777"/>
    <path d="M86.13,56.55l.25.39Z" fill="#777"/>
    <path d="M89.39,47.74l.25.39Z" fill="#777"/>
    <path d="M90.66,50.71a3.38,3.38,0,0,0,.09.54C90.72,51.07,90.7,50.89,90.66,50.71Z" fill="#777"/>
    <path d="M90.46,49.93a2.14,2.14,0,0,0,.13.48C90.55,50.24,90.51,50.08,90.46,49.93Z" fill="#777"/>
    <path d="M86.59,57.23l.28.35Z" fill="#777"/>
    <path d="M90.18,49.16c.06.15.12.29.17.44C90.29,49.46,90.24,49.31,90.18,49.16Z" fill="#777"/>
    <path d="M93,44.24a8.07,8.07,0,0,0-5.15,1.86,8.1,8.1,0,1,0,0,12.47A8.09,8.09,0,1,0,93,44.24Zm-3,8.1a7.26,7.26,0,0,1-2.1,5.1,7.24,7.24,0,0,1,0-10.19A7.27,7.27,0,0,1,90,52.34Zm-7.25,7.25a7.25,7.25,0,1,1,4.52-12.91l-.13.15-.24.27-.29.36-.21.28-.26.4-.17.29c-.08.14-.15.29-.22.43l-.14.3-.18.46a3.05,3.05,0,0,0-.11.3c0,.1-.09.33-.13.49s-.05.2-.07.3-.06.37-.09.55a.71.71,0,0,0,0,.26,7.8,7.8,0,0,0,0,1.64v.26a1.38,1.38,0,0,0,.09.55.82.82,0,0,1,.08.31c0,.11.08.32.13.48s.07.21.11.32l.17.45.15.31.21.42.18.3.25.39.21.29.28.35.25.28.13.14a7.23,7.23,0,0,1-4.54,1.58Zm10.3,0A7.23,7.23,0,0,1,88.52,58l.13-.14.25-.28.28-.35.22-.3.24-.37.19-.32c.07-.13.14-.27.2-.4l.15-.33c.06-.14.11-.29.16-.43l.12-.33a3.54,3.54,0,0,0,.12-.47c0-.16.06-.21.08-.32s.06-.36.08-.53a1.16,1.16,0,0,0,0-.27,7.78,7.78,0,0,0,0-1.64v-.27a1.34,1.34,0,0,0-.09-.54.86.86,0,0,1-.08-.31c0-.1-.08-.32-.13-.48s-.07-.21-.11-.32-.11-.3-.17-.44L90,48.85c-.07-.14-.13-.28-.21-.41l-.18-.31-.25-.39-.21-.29-.29-.36-.24-.27-.13-.15A7.25,7.25,0,1,1,93,59.59Z" fill="#777"/>
    <path d="M78.79,61.65a.84.84,0,0,0-.71.36.82.82,0,0,0-.63-.36.75.75,0,0,0-.68.29V61.7h-.32c-.11,0-.15,0-.14.14v2h.46V62.72a1.21,1.21,0,0,1,0-.25.47.47,0,0,1,.53-.38.42.42,0,0,1,.41.43h0a1.78,1.78,0,0,1,0,.19v1.13h.44V63a3,3,0,0,1,0-.45.43.43,0,0,1,.34-.36.45.45,0,0,1,.61.47v1.23h.46V62.56a.79.79,0,0,0-.66-.9Z" fill="#777"/>
    <path d="M99.4,60.86H99v1.06a1,1,0,0,0-1.41,0l0,0a1.2,1.2,0,0,0,0,1.49,1,1,0,0,0,.58.37.9.9,0,0,0,.9-.26v.23h.32c.11,0,.14,0,.14-.14V61.05a.37.37,0,0,0,0-.12S99.42,60.86,99.4,60.86Zm-1,2.58a.68.68,0,1,1,.63-.73s0,0,0,0a.63.63,0,0,1-.58.68Z" fill="#777"/>
    <path d="M82,61.7c-.2,0-.2,0-.22.21a1,1,0,0,0-1.41,0,1.19,1.19,0,0,0-.07,1.51,1,1,0,0,0,.61.38.9.9,0,0,0,.88-.26v.23h.32c.11,0,.14,0,.14-.14v-2Zm-.82,1.73a.68.68,0,1,1,.64-.72s0,0,0,0a.63.63,0,0,1-.58.68h-.06Z" fill="#777"/>
    <path d="M95.15,61.71h-.39v.21c-.42-.26-.47-.27-.75-.26a1,1,0,0,0-.7.35,1.2,1.2,0,0,0,0,1.5,1,1,0,0,0,.62.35.89.89,0,0,0,.84-.27v.23h.34c.09,0,.12,0,.12-.12V61.8S95.17,61.71,95.15,61.71Zm-1,1.73a.68.68,0,1,1,.64-.72v0a.63.63,0,0,1-.58.68h-.06Z" fill="#777"/>
    <path d="M88.83,63c.1,0,.14,0,.13-.13a2.93,2.93,0,0,0,0-.33.94.94,0,0,0-.7-.79,1,1,0,0,0-1.07.3,1.22,1.22,0,0,0,0,1.59,1.27,1.27,0,0,0,1.63,0l-.22-.33a1,1,0,0,1-.73.21.52.52,0,0,1-.49-.5H88.8Zm-1.42-.38a.53.53,0,0,1,1.05,0Z" fill="#777"/>
    <path d="M83.93,63.4a.79.79,0,0,1-.31.06,1.18,1.18,0,0,1-.72-.22l-.21.35h.05l.14.08a1.58,1.58,0,0,0,1.09.11,1,1,0,0,0,.42-.22.56.56,0,0,0-.13-.93,2.17,2.17,0,0,0-.47-.14.72.72,0,0,1-.4-.08.21.21,0,0,1-.13-.15.22.22,0,0,1,.09-.17.49.49,0,0,1,.28-.07,3.58,3.58,0,0,1,.7.13l.19-.34-.37-.14a1.46,1.46,0,0,0-1,0,.59.59,0,0,0-.35.59.54.54,0,0,0,.39.5l.39.1.38.08c.07,0,.15.11.15.17A.28.28,0,0,1,83.93,63.4Z" fill="#777"/>
    <path d="M85.3,61.07v.63h-.42v.43h.42V63.3a.56.56,0,0,0,.34.53,1,1,0,0,0,.89,0s.06-.06.06-.09a3.07,3.07,0,0,0-.11-.33l-.36.09a.27.27,0,0,1-.35-.28v-1h.74v-.43h-.75v-.62Z" fill="#777"/>
    <path d="M91.83,62.12a.84.84,0,0,1,.75.15l.21-.36A1.21,1.21,0,0,0,91.2,62a1.18,1.18,0,0,0,0,1.61,1.21,1.21,0,0,0,1.55,0l-.21-.35c-.53.24-.83.22-1.05,0a.68.68,0,0,1,.3-1.08Z" fill="#777"/>
    <path d="M89.88,61.7h-.3c-.11,0-.15,0-.15.15v2h.45v-1.1a1.47,1.47,0,0,1,0-.28.38.38,0,0,1,.41-.34h.31l.14-.42a.73.73,0,0,0-.88.22Z" fill="#777"/>
    <path d="M96.8,62.1H97l.14-.43a.73.73,0,0,0-.87.21c0-.22,0-.22-.27-.22h-.08c-.11,0-.13,0-.13.13v2h.34c.1,0,.13,0,.13-.13V62.47a.42.42,0,0,1,.46-.38Z" fill="#777"/>
    <path d="M.71,35.38h100a.71.71,0,0,0,0-1.42H.71a.71.71,0,0,0,0,1.42Z" fill="#777"/>
    <path d="M100.71,73.17H.71a.71.71,0,0,0,0,1.42h100a.71.71,0,0,0,0-1.42Z" fill="#777"/>
    <path d="M10.42,13.46c4.75,0,7.47-2.14,8.33-6.53v-.1l-.48-.2-.21-.07-.44-.11-.47-.09a11.93,11.93,0,0,0-1.88-.14H9.37a.52.52,0,0,0-.51.44L7.78,13.52a1.51,1.51,0,0,1,.43-.06Z" fill="#b3b3b3"/>
    <path d="M1.36,21.55H5.65l1.11-7.06h0L8,6.53a1.35,1.35,0,0,1,.74-1,1.39,1.39,0,0,1,.59-.13h5.91a12.82,12.82,0,0,1,2,.15l.52.1.49.13.24.08.37.12h0a7,7,0,0,0,0-1V4.89a4.19,4.19,0,0,0-.13-.77V4a3.67,3.67,0,0,0-.3-.7l0-.09a4.44,4.44,0,0,0-.48-.67,4.54,4.54,0,0,0-1.52-1.09,10.07,10.07,0,0,0-4-.66H4.92a.65.65,0,0,0-.65.55l-3.13,20a.22.22,0,0,0,.18.26Z" fill="#b3b3b3"/>
    <path d="M10.44,14.35H8.22a.65.65,0,0,0-.64.55L6.43,22.11h0l-.32,2a.14.14,0,0,0,.12.16h4a.61.61,0,0,0,.56-.47v-.22l.79-5a1.33,1.33,0,0,1,1.31-1.11h.59c4.14,0,6.52-1.86,7.26-5.7.36-1.82.18-3.18-.64-4.13a3.94,3.94,0,0,0-.53-.46C18.55,12,15.54,14.35,10.44,14.35Z" fill="#dcdcdc"/>
    <path d="M33.44,20.4l.6-3.81a1.18,1.18,0,0,1,1.17-1H37c3.41,0,5.32-1.59,5.84-4.87a3.84,3.84,0,0,0-.61-3.21A4.71,4.71,0,0,0,38.5,6.26H33a.34.34,0,0,0-.33.29l-2.22,14.1h2.66A.34.34,0,0,0,33.44,20.4ZM35.2,9.2a.88.88,0,0,1,.87-.75h.38c1,0,2.13,0,2.74.71A2.22,2.22,0,0,1,39.55,11c-.36,2.33-2.2,2.33-3.69,2.33H35a.42.42,0,0,1-.42-.49Z" fill="#b3b3b3"/>
    <path d="M46.86,20.92a4.66,4.66,0,0,0,3.32-1.36.43.43,0,0,1,.74.35l-.12.73h2.4a.34.34,0,0,0,.33-.29l1.42-9.06H52.3l-.15.82a.43.43,0,0,1-.77.18L51.2,12c-.55-.8-2-.92-2.76-.92A5.64,5.64,0,0,0,43,16a4.54,4.54,0,0,0,.88,3.71A3.67,3.67,0,0,0,46.86,20.92Zm-1.16-5A3.36,3.36,0,0,1,49.07,13a2.63,2.63,0,0,1,2.08.87,2.68,2.68,0,0,1,.54,2.2h0A3.35,3.35,0,0,1,48.29,19a2.46,2.46,0,0,1-2.6-3.06Z" fill="#b3b3b3"/>
    <path d="M60,20.32l-2.74,3.87,2.67,0a.34.34,0,0,0,.28-.15L69,11.39v-.05H66.31a.34.34,0,0,0-.28.15l-3.65,5.38a.43.43,0,0,1-.76-.12l-1.54-5.17a.34.34,0,0,0-.33-.24h-2.6L60,20A.42.42,0,0,1,60,20.32Z" fill="#b3b3b3"/>
    <path d="M72.63,20.59l.63-4a1.19,1.19,0,0,1,1.17-1h1.74c3.41,0,5.32-1.59,5.84-4.87a3.84,3.84,0,0,0-.61-3.21,4.71,4.71,0,0,0-3.68-1.26h-5.5a.34.34,0,0,0-.33.29l-2.22,14.1h2.85A.11.11,0,0,0,72.63,20.59ZM74.43,9.2a.88.88,0,0,1,.87-.75h.38c1,0,2.13,0,2.74.71A2.22,2.22,0,0,1,78.78,11c-.35,2.33-2.2,2.33-3.69,2.33h-.83a.42.42,0,0,1-.42-.49Z" fill="#dcdcdc"/>
    <path d="M82.44,20.29a4.53,4.53,0,0,0,3.64,1.49,5.57,5.57,0,0,0,3.12-.94.88.88,0,0,0,.86.69h2.37a1.18,1.18,0,0,0,1.17-1l1.42-9a.88.88,0,0,0-.75-1H91.52a.88.88,0,0,0-.83.58,4.9,4.9,0,0,0-3-.83,6.48,6.48,0,0,0-6.3,5.65A5.39,5.39,0,0,0,82.44,20.29ZM82.2,16A5.64,5.64,0,0,1,87.66,11c.79,0,2.21.12,2.76.92l.18.27a.43.43,0,0,0,.77-.18l.15-.76h2.63l-1.42,9a.34.34,0,0,1-.33.29H90l.12-.73a.43.43,0,0,0-.74-.35,4.66,4.66,0,0,1-3.32,1.36,3.67,3.67,0,0,1-3-1.19A4.54,4.54,0,0,1,82.2,16Z" fill="#777"/>
    <path d="M87.51,19a3.35,3.35,0,0,0,3.39-2.87h0a2.68,2.68,0,0,0-.54-2.2A2.63,2.63,0,0,0,88.28,13a3.36,3.36,0,0,0-3.37,2.89,2.46,2.46,0,0,0,2.6,3Zm-1.76-2.92a2.53,2.53,0,0,1,2.53-2.18,1.81,1.81,0,0,1,1.43.57A1.85,1.85,0,0,1,90.07,16a2.52,2.52,0,0,1-2.55,2.16,1.62,1.62,0,0,1-1.76-2.07Z" fill="#777"/>
    <path d="M86.08,20.92a4.66,4.66,0,0,0,3.32-1.36.43.43,0,0,1,.74.35l-.12.73h2.4a.34.34,0,0,0,.33-.29l1.42-9H91.52l-.15.76a.43.43,0,0,1-.77.18L90.42,12c-.55-.8-2-.92-2.76-.92A5.64,5.64,0,0,0,82.2,16a4.54,4.54,0,0,0,.88,3.71A3.67,3.67,0,0,0,86.08,20.92Zm-1.16-5A3.36,3.36,0,0,1,88.29,13a2.63,2.63,0,0,1,2.08.87,2.68,2.68,0,0,1,.54,2.2h0A3.35,3.35,0,0,1,87.51,19a2.46,2.46,0,0,1-2.6-3.06Z" fill="#dcdcdc"/>
    <path d="M98.06,20.39l2.22-14.1-3-.08.42.07L95.42,20.64h2.3A.34.34,0,0,0,98.06,20.39Z" fill="#dcdcdc"/>
    <path d="M23.81,49.42H14.94v4.09h8.87a2,2,0,0,0,0-4.08Z" fill="#dcdcdc"/>
    <path d="M7.09,54.59v-.66a.43.43,0,0,1,.42-.42H13.9a4.23,4.23,0,0,0-4.22-4H5.35a4.23,4.23,0,0,0-4.22,4.22v1.24a4.23,4.23,0,0,0,4.22,4.22H9.69A4.23,4.23,0,0,0,13.91,55H7.51A.43.43,0,0,1,7.09,54.59Z" fill="#dcdcdc"/>
    <path d="M14.94,55v4.09h8.87a2,2,0,1,0,0-4.08Z" fill="#dcdcdc"/>
    <polygon points="50.02 49.15 47.99 49.15 46.32 59.4 48.35 59.4 50.02 49.15" fill="#dcdcdc"/>
    <path d="M58.28,56.22c0-1.49-1.28-2.17-2.41-2.78-.87-.47-1.63-.88-1.63-1.63a1.17,1.17,0,0,1,.62-1,4.79,4.79,0,0,1,3.53,0l.26-1.49A7.69,7.69,0,0,0,56.54,49s-4.42,0-4.42,3.25c0,1.41,1.14,2,2.25,2.6.9.48,1.75.93,1.75,1.81a1.31,1.31,0,0,1-.83,1.2,5.59,5.59,0,0,1-4.06-.23L51,59.13a8.27,8.27,0,0,0,2.79.47C55.58,59.6,58.28,58.7,58.28,56.22Z" fill="#dcdcdc"/>
    <path d="M40.22,56.45l-.32-1.62v-.22l0-.13-.11-.23-.06-.13-.18-.33-.07-.13-.25-.39L39,53.13a3.9,3.9,0,0,0-.32-.42l-.12-.15-.39-.44L38,52a8.17,8.17,0,0,0-.64-.57l-.3-.22,2.14,8.23h2.4l4.25-10.25H43.69L41,56.51a.4.4,0,0,1-.78-.06Z" fill="#dcdcdc"/>
    <path d="M37.92,50.74a9.08,9.08,0,0,1,.77.71l.23.25c.14.16.28.31.41.47l.08.09-.48-2.44c0-.13-.14-.66-1-.66h-2.6a12.09,12.09,0,0,1,1.94,1.1C37.49,50.41,37.71,50.57,37.92,50.74Z" fill="#b3b3b3"/>
    <path d="M61.71,58a.43.43,0,0,1,.4-.28h3.67a.42.42,0,0,1,.42.34l.27,1.31h1.78L66.12,49.15h-2a.91.91,0,0,0-.93.54L59.12,59.4H61.2Zm.83-2.28,1.52-4.16a.42.42,0,0,1,.82.06l.85,4.16a.42.42,0,0,1-.32.5H62.95a.42.42,0,0,1-.4-.57Z" fill="#dcdcdc"/>
    <path d="M86.59,57.23,86.38,57l-.25-.39-.18-.3c-.08-.14-.14-.28-.21-.42l-.15-.31c-.06-.15-.12-.3-.17-.45s-.08-.21-.11-.32-.09-.32-.13-.48L85.1,54c0-.11-.06-.36-.09-.55a.7.7,0,0,1,0-.26,7.8,7.8,0,0,1,0-1.64v-.26a4.09,4.09,0,0,1,.09-.55c0-.18,0-.2.07-.3A2.46,2.46,0,0,0,85.3,50a3,3,0,0,1,.11-.3c0-.1.11-.31.18-.46l.14-.3c.07-.15.14-.29.22-.43l.17-.29.26-.4.21-.28.29-.36.24-.27.13-.15a7.25,7.25,0,1,0,0,11.33l-.13-.14-.25-.28Z" fill="#b3b3b3"/>
    <path d="M86.59,47.45l-.21.28Z" fill="#dcdcdc"/>
    <path d="M85,53.16v0Z" fill="#dcdcdc"/>
    <path d="M85.18,50.41a1.63,1.63,0,0,1-.07.3C85.13,50.61,85.16,50.51,85.18,50.41Z" fill="#dcdcdc"/>
    <path d="M85,51.26v0Z" fill="#dcdcdc"/>
    <path d="M85.42,49.62c0,.1-.08.2-.11.3C85.35,49.82,85.39,49.72,85.42,49.62Z" fill="#dcdcdc"/>
    <path d="M86.13,48.14l-.17.29Z" fill="#dcdcdc"/>
    <path d="M87.12,46.82l-.24.27Z" fill="#dcdcdc"/>
    <path d="M85.74,48.86l-.14.3Z" fill="#dcdcdc"/>
    <path d="M86.38,57l.21.29Z" fill="#dcdcdc"/>
    <path d="M86,56.25l.18.3Z" fill="#dcdcdc"/>
    <path d="M85.11,54a1.29,1.29,0,0,0,.08.31C85.16,54.17,85.13,54.07,85.11,54Z" fill="#dcdcdc"/>
    <path d="M87.13,57.86l-.25-.28Z" fill="#dcdcdc"/>
    <path d="M85.6,55.52l.15.31Z" fill="#dcdcdc"/>
    <path d="M85.31,54.76a1,1,0,0,0,.11.32C85.39,55,85.35,54.86,85.31,54.76Z" fill="#dcdcdc"/>
    <path d="M93,45.09a7.23,7.23,0,0,0-4.52,1.58l.13.15.24.27.29.36.21.29.25.39.18.31.21.41.15.32c.06.15.12.29.17.44s.08.21.11.32.09.32.13.48.06.21.08.31.06.36.09.54a.77.77,0,0,1,0,.27,7.78,7.78,0,0,1,0,1.64v.27a1.42,1.42,0,0,1-.08.53,1,1,0,0,0-.08.32l-.12.47a2.38,2.38,0,0,1-.12.33c0,.11-.1.29-.16.43l-.15.33c-.07.14-.13.27-.2.4l-.19.32-.24.37-.22.3-.28.35-.25.28L88.5,58A7.25,7.25,0,1,0,93,45.09Z" fill="#dcdcdc"/>
    <path d="M90.66,54a1.25,1.25,0,0,1-.08.32C90.61,54.18,90.64,54.08,90.66,54Z" fill="#b3b3b3"/>
    <path d="M90.18,55.51l-.15.33Z" fill="#b3b3b3"/>
    <path d="M89.82,56.24l-.19.32Z" fill="#b3b3b3"/>
    <path d="M90.46,54.75a1.1,1.1,0,0,1-.12.33Z" fill="#b3b3b3"/>
    <path d="M89.39,57l-.22.3Z" fill="#b3b3b3"/>
    <path d="M88.65,46.82l.24.27Z" fill="#b3b3b3"/>
    <path d="M88.65,57.86l.25-.28Z" fill="#b3b3b3"/>
    <path d="M90.79,53.16v.27A.61.61,0,0,1,90.79,53.16Z" fill="#b3b3b3"/>
    <path d="M89.64,48.13l.18.31Z" fill="#b3b3b3"/>
    <path d="M90,48.85l.15.32Z" fill="#b3b3b3"/>
    <path d="M89.18,47.45l.21.29Z" fill="#b3b3b3"/>
    <path d="M90.75,51.25v.27A.61.61,0,0,0,90.75,51.25Z" fill="#b3b3b3"/>
    <path d="M90.59,50.4a1.77,1.77,0,0,0,.08.31A2.81,2.81,0,0,1,90.59,50.4Z" fill="#b3b3b3"/>
    <path d="M90.34,49.61c0,.11.08.21.11.32A3,3,0,0,0,90.34,49.61Z" fill="#b3b3b3"/>
    <path d="M90,52.34a7.26,7.26,0,0,0-2.1-5.08,7.21,7.21,0,0,0,0,10.17A7.25,7.25,0,0,0,90,52.34Z" fill="#b3b3b3"/>
    <path d="M90,52.34a7.27,7.27,0,0,0-2.1-5.1,7.26,7.26,0,0,0-2.1,5.1,7.26,7.26,0,0,1,2.1-5.08A7.26,7.26,0,0,1,90,52.34Z" fill="#b3b3b3"/>
    <path d="M87.89,57.42a7.25,7.25,0,0,1-2.1-5.08,7.26,7.26,0,0,0,2.1,5.1,7.26,7.26,0,0,0,2.1-5.1A7.25,7.25,0,0,1,87.89,57.42Z" fill="#b3b3b3"/>
  </g>
</svg>