<svg xmlns="http://www.w3.org/2000/svg" viewBox="0 0 60 60">
<path d="M28.08,17.29q-2.82,1.62-4.56,2.78A21,21,0,0,0,20,23.16a14.11,14.11,0,0,0-2.58,3.77A17.17,17.17,0,0,0,16.13,32H19a8.69,8.69,0,0,1,5.86,1.83A6.7,6.7,0,0,1,27,39.22a7.09,7.09,0,0,1-1.89,4.71,6.5,6.5,0,0,1-5.2,2.19q-5.17,0-7.39-3.39a16,16,0,0,1-2.22-8.9A15.05,15.05,0,0,1,12,26.74,25.19,25.19,0,0,1,16.07,21a29.51,29.51,0,0,1,5.23-4.38q2.76-1.8,4.62-2.94Zm22.22,0q-2.82,1.62-4.56,2.78a21,21,0,0,0-3.54,3.08A13.93,13.93,0,0,0,39.58,27,17.49,17.49,0,0,0,38.35,32h2.88a8.69,8.69,0,0,1,5.86,1.83,6.7,6.7,0,0,1,2.13,5.38,7.09,7.09,0,0,1-1.89,4.71,6.5,6.5,0,0,1-5.2,2.19q-5.17,0-7.39-3.39a16,16,0,0,1-2.22-8.9,15.05,15.05,0,0,1,1.68-7.1A25.19,25.19,0,0,1,38.29,21a29.51,29.51,0,0,1,5.23-4.38q2.76-1.8,4.62-2.94Z" fill="#696969"/>
</svg>