<svg xmlns="http://www.w3.org/2000/svg" viewBox="0 0 64.96 38.5">
  <g>
    <rect x="19.1" y="16.42" width="28.12" height="13.81" fill="#fff"/>
    <rect x="17.52" y="8.27" width="31.29" height="8.15" fill="#fff"/>
    <path d="M47.22,30.73H19.1a.5.5,0,0,1-.5-.5V16.42a.5.5,0,0,1,.5-.5H47.22a.5.5,0,0,1,.5.5V30.23A.5.5,0,0,1,47.22,30.73Zm-27.62-1H46.72V16.92H19.6Z" fill="#777"/>
    <g>
      <path d="M48.81,16.92H17.52a.5.5,0,0,1-.5-.5V8.27a.5.5,0,0,1,.5-.5H48.81a.5.5,0,0,1,.5.5v8.15A.5.5,0,0,1,48.81,16.92ZM18,15.92H48.31V8.77H18Z" fill="#777"/>
      <path d="M36.93,12.59H29.4a.25.25,0,0,1,0-.5h7.53a.25.25,0,0,1,0,.5Z" fill="#777"/>
    </g>
    <g>
      <polygon points="21.26 4.47 8.27 4.47 8.27 0.25 0.25 8.27 8.27 16.29 8.27 12.07 21.26 12.07 21.26 4.47" fill="#ccc"/>
      <path d="M8.27,16.54a.25.25,0,0,1-.18-.07l-8-8a.25.25,0,0,1,0-.35l8-8a.25.25,0,0,1,.43.18v4H21.26a.25.25,0,0,1,.25.25v7.61a.25.25,0,0,1-.25.25H8.52v4a.25.25,0,0,1-.15.23ZM.6,8.27,8,15.69V12.07a.25.25,0,0,1,.25-.25H21V4.72H8.27A.25.25,0,0,1,8,4.47V.85Z" fill="#777"/>
    </g>
    <g>
      <polygon points="43.7 34.03 56.69 34.03 56.69 38.25 64.71 30.23 56.69 22.21 56.69 26.42 43.7 26.42 43.7 34.03" fill="#ccc"/>
      <path d="M56.69,38.5l-.1,0a.25.25,0,0,1-.15-.23v-4H43.7a.25.25,0,0,1-.25-.25V26.42a.25.25,0,0,1,.25-.25H56.44v-4a.25.25,0,0,1,.43-.18l8,8a.25.25,0,0,1,0,.35l-8,8A.25.25,0,0,1,56.69,38.5ZM44,33.78H56.69a.25.25,0,0,1,.25.25v3.61l7.42-7.42-7.42-7.42v3.61a.25.25,0,0,1-.25.25H44Z" fill="#777"/>
    </g>
  </g>
</svg>